<svg width="192" height="64" viewBox="0 0 192 64" fill="none" xmlns="http://www.w3.org/2000/svg">
<g clip-path="url(#clip0_762_1468)">
<path d="M0.0428261 29.9014H2.81908C3.96881 29.9014 4.79553 30.3038 5.24542 31.2477C5.60687 31.9924 5.64533 33.7561 5.64533 34.0344C5.64533 35.9186 5.46844 37.0054 5.09546 37.5921C4.60711 38.3517 3.69579 38.7278 2.11925 38.7278H0.0428261V29.8976V29.9014ZM1.19255 37.7538H2.28075C3.88037 37.7538 4.46869 37.1671 4.46869 35.1138V33.3274C4.46869 31.5411 3.90728 30.883 2.70757 30.883H1.19255V37.7576V37.7538Z" fill="#221F20"/>
<path d="M7.65744 38.7317V29.9015H12.3102V30.8793H8.80716V33.7187H12.0602V34.6965H8.80716V37.7539H12.3832V38.7317H7.65744Z" fill="#221F20"/>
<path d="M14.0599 38.7317V29.9015H16.7361C17.9512 29.9015 19.2509 30.3416 19.2509 32.4212C19.2509 34.5009 17.6513 34.8431 16.7246 34.8431H15.2096V38.7317H14.0599ZM16.4708 33.8654C16.9476 33.8654 18.0704 33.7412 18.0704 32.3611C18.0704 30.9809 17.0438 30.8831 16.7938 30.8831H15.2057V33.8654H16.4708Z" fill="#221F20"/>
<path d="M22.2767 29.9015H23.7417L26.6795 38.7317H25.3913L24.7415 36.6295H21.2539L20.5809 38.7317H19.4158L22.2805 29.9015H22.2767ZM22.9765 30.9395H22.9535L21.5384 35.6479H24.4262L22.9765 30.9395Z" fill="#221F20"/>
<path d="M29.0049 34.6739V38.7317H27.8552V29.9015H30.9699C32.5695 29.9015 33.1347 31.0034 33.1347 32.1016C33.1347 33.1395 32.5464 33.9368 31.4851 34.1173V34.1436C32.5233 34.3016 32.9002 34.6476 32.9617 36.4189C32.9732 36.7987 33.1001 38.1827 33.2731 38.7317H32.0734C31.7466 38.1225 31.8235 36.9717 31.7235 35.7984C31.6351 34.7228 30.7468 34.6739 30.3585 34.6739H29.0049ZM29.0049 33.6961H30.7315C31.5543 33.6961 31.9542 33.0004 31.9542 32.2257C31.9542 31.5901 31.6312 30.8831 30.743 30.8831H29.0049V33.6961Z" fill="#221F20"/>
<path d="M39.8945 29.9015V30.8793H37.5181V38.7317H36.3684V30.8793H33.992V29.9015H39.8945Z" fill="#221F20"/>
<path d="M42.1721 38.7317H41.0954V29.9015H42.9604L45.2367 37.3139H45.2598L47.5631 29.9015H49.4626V38.7317H48.3129V30.8793H48.286L45.7597 38.7317H44.6753L42.199 30.8793H42.1721V38.7317Z" fill="#221F20"/>
<path d="M51.4999 38.7317V29.9015H56.1526V30.8793H52.6496V33.7187H55.9026V34.6965H52.6496V37.7539H56.2256V38.7317H51.4999Z" fill="#221F20"/>
<path d="M64.0052 29.9015V38.7317H62.4287L58.8642 31.0749H58.8411V38.7317H57.8144V29.9015H59.4409L62.9555 37.4606H62.9824V29.9015H64.0052Z" fill="#221F20"/>
<path d="M71.1577 29.9015V30.8793H68.7814V38.7317H67.6316V30.8793H65.2553V29.9015H71.1577Z" fill="#221F20"/>
<path d="M75.0826 35.5047V32.6052C75.0826 30.8452 76.0093 29.717 77.9242 29.717C79.8391 29.717 80.762 30.8414 80.762 32.6052V35.5047C80.762 37.9492 79.8353 38.9157 77.9242 38.9157C76.0131 38.9157 75.0826 37.9492 75.0826 35.5047ZM79.5853 35.5536V32.5714C79.5853 30.7249 78.2818 30.6647 77.9242 30.6647C77.5666 30.6647 76.2592 30.7249 76.2592 32.5714V35.5536C76.2592 37.4866 76.836 37.9755 77.9242 37.9755C79.0124 37.9755 79.5853 37.4866 79.5853 35.5536Z" fill="#221F20"/>
<path d="M82.6732 38.7317V29.9015H87.1491V30.8793H83.823V33.7187H86.976V34.6965H83.823V38.7317H82.6732Z" fill="#221F20"/>
<path d="M95.0667 32.3346C95.0821 31.8344 95.0436 31.3305 94.8052 31.0522C94.5668 30.7701 94.0285 30.6723 93.7939 30.6723C92.8442 30.6723 92.4673 31.2365 92.4289 31.3568C92.3904 31.4546 92.1636 31.6765 92.1636 33.192V35.5538C92.1636 37.7199 92.8903 37.9757 93.7786 37.9757C94.1285 37.9757 95.1936 37.8516 95.2051 36.1292H96.3933C96.4433 38.9159 94.4284 38.9159 93.8439 38.9159C92.7173 38.9159 90.9908 38.8444 90.9908 35.4184V32.925C90.9908 30.4317 92.1174 29.7209 93.8901 29.7209C95.6627 29.7209 96.3664 30.6272 96.2549 32.3383H95.0667V32.3346Z" fill="#221F20"/>
<path d="M98.0043 29.9015H99.154V35.5502C99.154 37.4832 99.7539 37.9721 100.842 37.9721C101.93 37.9721 102.53 37.4832 102.53 35.5502V29.9015H103.68V35.5013C103.68 37.9457 102.753 38.9122 100.842 38.9122C98.931 38.9122 98.0043 37.9457 98.0043 35.5013V29.9015Z" fill="#221F20"/>
<path d="M105.683 38.7317V29.9015H106.833V37.7539H110.147V38.7317H105.683Z" fill="#221F20"/>
<path d="M115.549 29.9015V30.8793H113.173V38.7317H112.023V30.8793H109.647V29.9015H115.549Z" fill="#221F20"/>
<path d="M116.7 29.9015H117.85V35.5502C117.85 37.4832 118.45 37.9721 119.538 37.9721C120.626 37.9721 121.226 37.4832 121.226 35.5502V29.9015H122.376V35.5013C122.376 37.9457 121.449 38.9122 119.538 38.9122C117.627 38.9122 116.7 37.9457 116.7 35.5013V29.9015Z" fill="#221F20"/>
<path d="M125.505 34.6739V38.7317H124.355V29.9015H127.47C129.069 29.9015 129.634 31.0034 129.634 32.1016C129.634 33.1395 129.046 33.9368 127.985 34.1173V34.1436C129.023 34.3016 129.4 34.6476 129.461 36.4189C129.473 36.7987 129.6 38.1827 129.773 38.7317H128.573C128.246 38.1225 128.323 36.9717 128.223 35.7984C128.135 34.7228 127.246 34.6739 126.858 34.6739H125.505ZM125.505 33.6961H127.231C128.054 33.6961 128.454 33.0004 128.454 32.2257C128.454 31.5901 128.131 30.8831 127.243 30.8831H125.505V33.6961Z" fill="#221F20"/>
<path d="M131.33 38.7317V29.9015H135.983V30.8793H132.48V33.7187H135.733V34.6965H132.48V37.7539H136.056V38.7317H131.33Z" fill="#221F20"/>
<path d="M64.3937 44.8351H65.8587L68.7965 53.6653H67.5083L66.8585 51.5631H63.3709L62.6941 53.6653H61.5328L64.3975 44.8351H64.3937ZM65.0935 45.8731H65.0705L63.6554 50.5815H66.5432L65.0935 45.8731Z" fill="#221F20"/>
<path d="M76.2451 44.8351V53.6653H74.6724L71.1078 46.0085H71.0809V53.6653H70.0581V44.8351H71.6808L75.1953 52.3942H75.2222V44.8351H76.2451Z" fill="#221F20"/>
<path d="M78.3597 44.8351H81.1359C82.2857 44.8351 83.1124 45.2375 83.5623 46.1815C83.9237 46.9261 83.9622 48.6899 83.9622 48.9719C83.9622 50.8561 83.7853 51.9429 83.4123 52.5296C82.924 53.2892 82.0126 53.6653 80.4361 53.6653H78.3597V44.8351ZM79.5094 52.6875H80.5976C82.1972 52.6875 82.7855 52.1009 82.7855 50.0437V48.2612C82.7855 46.4748 82.2241 45.8129 81.0244 45.8129H79.5094V52.6875Z" fill="#221F20"/>
<path d="M93.8138 44.8351V45.8129H91.4375V53.6653H90.2877V45.8129H87.9114V44.8351H93.8138Z" fill="#221F20"/>
<path d="M94.9628 50.4385V47.539C94.9628 45.7789 95.8895 44.6545 97.8006 44.6545C99.7117 44.6545 100.638 45.7789 100.638 47.539V50.4385C100.638 52.8867 99.7117 53.8494 97.8006 53.8494C95.8895 53.8494 94.9628 52.8829 94.9628 50.4385ZM99.4656 50.4874V47.5013C99.4656 45.6548 98.1659 45.5947 97.8045 45.5947C97.443 45.5947 96.1395 45.6548 96.1395 47.5013V50.4874C96.1395 52.4204 96.7163 52.9093 97.8045 52.9093C98.8927 52.9093 99.4656 52.4204 99.4656 50.4874Z" fill="#221F20"/>
<path d="M102.603 44.8351H103.753V50.4875C103.753 52.4205 104.353 52.9094 105.441 52.9094C106.529 52.9094 107.129 52.4205 107.129 50.4875V44.8351H108.279V50.4349C108.279 52.8831 107.352 53.8458 105.441 53.8458C103.53 53.8458 102.603 52.8793 102.603 50.4349V44.8351Z" fill="#221F20"/>
<path d="M111.41 49.6076V53.6692H110.26V44.839H113.375C114.974 44.839 115.536 45.9409 115.536 47.0391C115.536 48.0808 114.947 48.8743 113.886 49.0586V49.0849C114.924 49.2429 115.301 49.5851 115.363 51.3601C115.374 51.74 115.501 53.1202 115.674 53.673H114.474C114.147 53.06 114.224 51.913 114.124 50.7396C114.036 49.6641 113.148 49.6152 112.759 49.6152H111.41V49.6076ZM111.41 48.6299H113.136C113.959 48.6299 114.359 47.9341 114.359 47.1632C114.359 46.5276 114.036 45.8168 113.148 45.8168H111.41V48.6299Z" fill="#221F20"/>
<path d="M118.535 44.8351H117.385V53.6653H118.535V44.8351Z" fill="#221F20"/>
<path d="M121.598 51.0364V51.2922C121.598 52.4918 122.374 52.8717 123.113 52.8717C124.024 52.8717 124.724 52.4918 124.724 51.4426C124.724 49.487 120.671 49.7051 120.671 47.0538C120.671 45.4894 121.809 44.6545 123.32 44.6545C124.97 44.6545 125.897 45.4367 125.824 47.2343H124.624C124.635 46.2678 124.324 45.6323 123.236 45.6323C122.548 45.6323 121.848 45.9745 121.848 46.9297C121.848 48.874 125.901 48.592 125.901 51.3937C125.901 53.2515 124.585 53.8494 123.101 53.8494C120.436 53.8758 120.436 51.8788 120.463 51.0364H121.602H121.598Z" fill="#221F20"/>
<path d="M128.751 53.6653H127.678V44.8351H129.539L131.815 52.2475H131.842L134.142 44.8351H136.041V53.6653H134.892V45.8129H134.868L132.342 53.6653H131.254L128.778 45.8129H128.751V53.6653Z" fill="#221F20"/>
<path d="M5.16518 19.7133C5.16518 19.9089 5.24978 20.0029 5.41897 20.0029H6.11495V21.0785H5.269C4.90755 21.0785 4.61531 20.9619 4.39613 20.725C4.17696 20.4918 4.06544 20.1533 4.06544 19.7096L4.04237 15.1779C3.78474 15.302 3.48866 15.4562 3.14644 15.6442C2.80421 15.8285 2.48506 16.0542 2.18897 16.3174C1.88905 16.5807 1.63526 16.8853 1.41993 17.2275C1.20844 17.5697 1.10077 17.9646 1.10077 18.4084C1.10077 19.0176 1.29303 19.4388 1.67371 19.6795C2.05439 19.9202 2.65425 20.0781 3.47328 20.1458L3.38868 21.2214C2.66963 21.18 2.089 21.0634 1.64295 20.8716C1.20075 20.6799 0.854678 20.4467 0.616274 20.1797C0.374025 19.9089 0.212525 19.6193 0.12793 19.3109C0.0433351 18.9988 0.00488281 18.7017 0.00488281 18.4121C0.00488281 17.6525 0.20868 16.9943 0.62012 16.434C1.02771 15.8736 1.51221 15.4036 2.06977 15.0162C2.62733 14.6288 3.19258 14.3242 3.77321 14.0948C4.34999 13.8654 4.81911 13.7037 5.16903 13.6097V19.7133H5.16518ZM2.73115 11.8685C2.73115 12.064 2.65809 12.2295 2.51966 12.3649C2.37739 12.504 2.2082 12.5717 2.01209 12.5717C1.81599 12.5717 1.64295 12.504 1.50452 12.3649C1.36609 12.2295 1.29303 12.0603 1.29303 11.8685C1.29303 11.6767 1.36225 11.5112 1.50452 11.3721C1.6468 11.2329 1.81599 11.1652 2.01209 11.1652C2.2082 11.1652 2.37739 11.2329 2.51966 11.3721C2.65809 11.5112 2.73115 11.6767 2.73115 11.8685ZM5.12288 11.8685C5.12288 12.064 5.05367 12.2295 4.9114 12.3649C4.76912 12.504 4.59993 12.5717 4.40382 12.5717C4.20772 12.5717 4.03853 12.504 3.89625 12.3649C3.75398 12.2295 3.68477 12.0603 3.68477 11.8685C3.68477 11.6767 3.75398 11.5112 3.89625 11.3721C4.03468 11.2329 4.20387 11.1652 4.40382 11.1652C4.60378 11.1652 4.76912 11.2329 4.9114 11.3721C5.05367 11.5112 5.12288 11.6767 5.12288 11.8685Z" fill="#221F20"/>
<path d="M8.96445 21.0787H6.11898C5.90749 21.0787 5.73061 21.0185 5.58833 20.8944C5.44606 20.7703 5.37685 20.6537 5.37685 20.5409C5.37685 20.4281 5.44991 20.3153 5.58833 20.1911C5.73061 20.067 5.90364 20.0031 6.11898 20.0031H8.96445V21.0787Z" fill="#221F20"/>
<path d="M8.96445 21.0787C8.75296 21.0787 8.57635 21.0184 8.43408 20.8943C8.29565 20.7702 8.22259 20.6536 8.22259 20.5408C8.22259 20.428 8.29565 20.3151 8.43408 20.191C8.57635 20.0669 8.74911 20.0031 8.96445 20.0031L14.5095 20.003C14.3673 19.7285 14.2596 19.3637 14.1827 18.9162C14.1058 18.4686 14.0443 17.8932 14.002 17.1862C13.9597 16.6748 13.8751 16.2761 13.7482 15.9865C13.6213 15.697 13.4636 15.4788 13.2829 15.3359C13.1022 15.1893 12.9022 15.099 12.6907 15.0576C12.4793 15.0163 12.2678 14.9975 12.0563 14.9975C11.5603 14.9975 11.0527 15.1629 10.5336 15.4939L9.85681 14.644C10.126 14.4522 10.449 14.2829 10.8297 14.1363C11.2103 13.9896 11.6256 13.9181 12.0755 13.9181C13.0061 13.9181 13.7213 14.1852 14.2135 14.7154C14.7056 15.2457 15.0017 16.043 15.1017 17.1072C15.1863 18.0437 15.2709 18.7206 15.3555 19.1343C15.4401 19.548 15.6247 19.7962 15.9054 19.8789L16.4975 20.0444L16.4552 21.0786L8.96445 21.0787Z" fill="#221F20"/>
<path d="M18 21.0788V10.214H19.0997V20.0032H20.0533V21.0788H18Z" fill="#221F20"/>
<path d="M21.9383 21.0787L20.0533 21.0788C19.8418 21.0788 19.6658 21.0185 19.5235 20.8944C19.3851 20.7703 19.312 20.6537 19.312 20.5409C19.312 20.4281 19.3812 20.3153 19.5235 20.1911C19.6658 20.067 19.838 20.0032 20.0533 20.0032L21.9383 20.0031V21.0787Z" fill="#221F20"/>
<path d="M21.9383 21.0787C21.7268 21.0787 21.5491 21.0184 21.4107 20.8943C21.2684 20.7702 21.1992 20.6536 21.1992 20.5408C21.1992 20.428 21.2684 20.3114 21.4107 20.1873C21.5529 20.0632 21.7268 20.0031 21.9383 20.0031L24.7945 20.003V14.7267H25.8942V20.003H26.8478V21.0786L21.9383 21.0787ZM23.1641 24.0195C22.968 24.0195 22.7988 23.9518 22.6565 23.8127C22.5142 23.6735 22.445 23.508 22.445 23.3162C22.445 23.1244 22.5142 22.9552 22.6565 22.8198C22.7949 22.6807 22.968 22.613 23.1641 22.613C23.3602 22.613 23.5332 22.6807 23.6717 22.8198C23.8139 22.9552 23.8831 23.1244 23.8831 23.3162C23.8831 23.508 23.8139 23.6735 23.6717 23.8127C23.5332 23.9518 23.3602 24.0195 23.1641 24.0195ZM25.3213 24.0195C25.1252 24.0195 24.956 23.9518 24.8137 23.8127C24.6714 23.6735 24.6022 23.508 24.6022 23.3162C24.6022 23.1244 24.6714 22.9552 24.8137 22.8198C24.9521 22.6807 25.1252 22.613 25.3213 22.613C25.5174 22.613 25.6904 22.6807 25.8288 22.8198C25.9711 22.9552 26.0403 23.1244 26.0403 23.3162C26.0403 23.508 25.9711 23.6735 25.8288 23.8127C25.6904 23.9518 25.5174 24.0195 25.3213 24.0195Z" fill="#221F20"/>
<path d="M29.1829 21.0787H26.8719C26.6604 21.0787 26.4836 21.0185 26.3413 20.8944C26.199 20.7703 26.1298 20.6537 26.1298 20.5409C26.1298 20.4281 26.2029 20.3153 26.3413 20.1911C26.4836 20.067 26.6566 20.0031 26.8719 20.0031H29.1829V21.0787Z" fill="#221F20"/>
<path d="M38.0879 20.0028V21.0783H29.1785C28.967 21.0783 28.7901 21.0144 28.6478 20.8903C28.5056 20.7662 28.4364 20.6496 28.4364 20.5368C28.4364 20.424 28.5056 20.3111 28.6478 20.187C28.7901 20.0629 28.967 20.0028 29.1785 20.0028H29.4746C29.9398 20.0028 30.2167 19.9501 30.309 19.8486C30.4013 19.747 30.4474 19.5778 30.4474 19.3409V14.6437H31.5471V20.0028H33.3044V14.6437H34.4042V20.0028H35.9884V14.6437H37.1304V20.0028H38.0879Z" fill="#221F20"/>
<path d="M41.8978 21.0787L38.0879 21.0783C37.8764 21.0783 37.6988 21.0185 37.5565 20.8944C37.4181 20.7703 37.345 20.6537 37.345 20.5409C37.345 20.4281 37.4181 20.3153 37.5565 20.1911C37.6988 20.067 37.8726 20.0028 38.0879 20.0028L41.8978 20.0031V21.0787Z" fill="#221F20"/>
<path d="M42.8491 10.1506H43.9488V21.0792H41.8955C41.684 21.0792 41.5071 21.0191 41.3648 20.8912C41.2225 20.7671 41.1533 20.6505 41.1533 20.5415C41.1533 20.4324 41.2225 20.312 41.3648 20.1879C41.5032 20.0638 41.684 20.0037 41.8955 20.0037H42.8491V10.1506Z" fill="#221F20"/>
<path d="M46.7443 10.214H45.6446V21.0788H46.7443V10.214Z" fill="#221F20"/>
<path d="M53.472 21.6164C53.472 22.1128 53.4374 22.5941 53.3682 23.0642C53.299 23.5343 53.1644 23.9518 52.9644 24.3166C52.7645 24.6813 52.4761 24.9784 52.1069 25.2041C51.734 25.4335 51.2379 25.5463 50.6188 25.5463V24.4707C51.0572 24.4707 51.3956 24.3842 51.634 24.2113C51.8762 24.0383 52.0493 23.8051 52.1646 23.5118C52.2761 23.2184 52.3453 22.8837 52.3646 22.5039C52.3876 22.1203 52.3953 21.7217 52.3953 21.308V21.0786H51.8032C50.6611 21.0786 49.7729 20.8304 49.1384 20.3339C48.504 19.8375 48.1848 19.1756 48.1848 18.3445C48.1848 17.7654 48.3156 17.2201 48.5732 16.7124C48.8347 16.2009 49.2 15.7496 49.6691 15.3585C50.142 14.9636 50.6996 14.644 51.3456 14.3958C51.9916 14.1476 52.6991 13.9896 53.4758 13.9181V21.6201L53.472 21.6164ZM52.3723 20.003V15.2006C51.434 15.4488 50.6842 15.8436 50.1228 16.3889C49.5614 16.9342 49.2807 17.5736 49.2807 18.3032C49.2807 18.8297 49.4922 19.2433 49.919 19.5442C50.3458 19.8488 51.0187 19.9992 51.9454 19.9992H52.3723V20.003Z" fill="#221F20"/>
<path d="M63.5042 19.7133C63.5042 19.9089 63.5888 20.0029 63.758 20.0029H64.4578V21.0785H63.6119C63.2504 21.0785 62.962 20.9619 62.739 20.725C62.5198 20.4918 62.4083 20.1533 62.4083 19.7096L62.3891 15.1779C62.1315 15.302 61.8354 15.4562 61.4932 15.6442C61.1509 15.8285 60.8318 16.0542 60.5318 16.3174C60.2358 16.5807 59.9781 16.8853 59.7666 17.2275C59.5552 17.5697 59.4475 17.9646 59.4475 18.4084C59.4475 19.0176 59.6398 19.4388 60.0204 19.6795C60.4011 19.9202 61.001 20.0781 61.82 20.1458L61.7354 21.2214C61.0163 21.18 60.4357 21.0634 59.9897 20.8716C59.5475 20.6799 59.2014 20.4467 58.963 20.1797C58.7207 19.9089 58.5593 19.6193 58.4747 19.3109C58.3901 18.9988 58.3516 18.7017 58.3516 18.4121C58.3516 17.6525 58.5554 16.9943 58.963 16.434C59.3744 15.8736 59.8551 15.4036 60.4126 15.0162C60.9702 14.6288 61.5393 14.3242 62.1161 14.0948C62.6929 13.8654 63.1581 13.7037 63.5119 13.6097V19.7133H63.5042ZM61.0702 11.8685C61.0702 12.064 60.9971 12.2295 60.8587 12.3649C60.7164 12.504 60.5472 12.5717 60.3511 12.5717C60.155 12.5717 59.982 12.504 59.8436 12.3649C59.7051 12.2295 59.6321 12.0603 59.6321 11.8685C59.6321 11.6767 59.7013 11.5112 59.8436 11.3721C59.9858 11.2329 60.155 11.1652 60.3511 11.1652C60.5472 11.1652 60.7164 11.2329 60.8587 11.3721C60.9971 11.5112 61.0702 11.6767 61.0702 11.8685ZM63.4619 11.8685C63.4619 12.064 63.3889 12.2295 63.2504 12.3649C63.112 12.504 62.939 12.5717 62.7429 12.5717C62.5468 12.5717 62.3737 12.504 62.2353 12.3649C62.093 12.2295 62.0238 12.0603 62.0238 11.8685C62.0238 11.6767 62.093 11.5112 62.2353 11.3721C62.3737 11.2329 62.5468 11.1652 62.7429 11.1652C62.939 11.1652 63.1082 11.2329 63.2504 11.3721C63.3927 11.5112 63.4619 11.6767 63.4619 11.8685Z" fill="#221F20"/>
<path d="M67.305 21.0787H64.4557C64.2442 21.0787 64.0673 21.0185 63.9251 20.8944C63.7828 20.7703 63.7136 20.6537 63.7136 20.5409C63.7136 20.4281 63.7828 20.3153 63.9251 20.1911C64.0673 20.067 64.2442 20.0031 64.4557 20.0031H67.305V21.0787Z" fill="#221F20"/>
<path d="M67.3035 21.079C67.092 21.079 66.9151 21.0151 66.7728 20.891C66.6344 20.7669 66.5613 20.6503 66.5613 20.5375C66.5613 20.4246 66.6344 20.3081 66.7728 20.1839C66.9151 20.0598 67.0881 19.9997 67.3035 19.9997H69.4183C68.4993 19.3942 68.0417 18.5292 68.0417 17.4123C68.0417 16.8896 68.1456 16.4232 68.3494 16.0171C68.5532 15.6109 68.8454 15.2649 69.2261 14.9829C69.6067 14.7008 70.0566 14.4865 70.5796 14.3398C71.1025 14.1931 71.6793 14.1217 72.3138 14.1217C72.5522 14.1217 72.7637 14.1292 72.9482 14.1405C73.129 14.1555 73.3558 14.1818 73.625 14.2232V21.0752H67.2958L67.3035 21.079ZM69.1453 17.4461C69.1453 18.1268 69.4222 18.6872 69.9759 19.1309C70.5296 19.5747 71.3832 19.8718 72.533 20.026V15.2048H72.4484C72.4214 15.2048 72.3984 15.2048 72.383 15.1935C72.3676 15.1859 72.3484 15.1822 72.3176 15.1822C71.9331 15.1822 71.5524 15.2123 71.1679 15.2762C70.7834 15.3401 70.445 15.453 70.1451 15.6184C69.849 15.7839 69.6067 16.0133 69.4222 16.3029C69.2376 16.5925 69.1453 16.9761 69.1453 17.4461ZM72.5945 11.5794C72.5945 11.7712 72.5214 11.9367 72.383 12.0758C72.2446 12.215 72.0715 12.2827 71.8754 12.2827C71.6793 12.2827 71.5063 12.215 71.3679 12.0758C71.2256 11.9404 71.1564 11.775 71.1564 11.5794C71.1564 11.3839 71.2256 11.2184 71.3679 11.083C71.5063 10.9438 71.6793 10.8762 71.8754 10.8762C72.0715 10.8762 72.2407 10.9438 72.383 11.083C72.5253 11.2184 72.5945 11.3876 72.5945 11.5794Z" fill="#221F20"/>
<path d="M75.3222 21.0788V10.214H76.422V20.0032H77.3756V21.0788H75.3222Z" fill="#221F20"/>
<path d="M81.185 21.0787L77.3756 21.0788C77.1641 21.0788 76.986 21.0185 76.8437 20.8944C76.7053 20.7703 76.6323 20.6537 76.6323 20.5409C76.6323 20.4281 76.7053 20.3153 76.8437 20.1911C76.986 20.067 77.1602 20.0032 77.3756 20.0032L81.185 20.0031V21.0787Z" fill="#221F20"/>
<path d="M81.185 21.0787C80.9735 21.0787 80.7963 21.0147 80.654 20.8906C80.5156 20.7665 80.4426 20.65 80.4426 20.5409C80.4426 20.4318 80.5156 20.3115 80.654 20.1874C80.7963 20.0633 80.9697 20.0031 81.185 20.0031H82.7074C82.4651 19.6872 82.2767 19.3187 82.1345 18.905C81.9922 18.4913 81.923 18.0513 81.923 17.5812C81.923 17.1111 81.996 16.6448 82.146 16.2161C82.2921 15.7873 82.4998 15.4113 82.7574 15.0878C83.0189 14.7644 83.3265 14.5087 83.6802 14.3244C84.034 14.1364 84.407 14.0424 84.803 14.0424C85.1991 14.0424 85.5683 14.1364 85.9143 14.3244C86.2604 14.5087 86.5642 14.7644 86.8218 15.0878C87.0833 15.4113 87.2871 15.7911 87.437 16.2161C87.5832 16.6448 87.6562 17.0998 87.6562 17.5812C87.6562 18.0626 87.587 18.4913 87.4447 18.905C87.3025 19.3187 87.114 19.6835 86.8718 20.0031H88.3945V21.0787H81.177L81.185 21.0787ZM84.3186 12.0868C84.3186 12.2823 84.2455 12.4478 84.1071 12.5794C83.9648 12.7148 83.7956 12.7788 83.5995 12.7788C83.4034 12.7788 83.2304 12.7148 83.0919 12.5794C82.9535 12.4478 82.8804 12.2823 82.8804 12.0868C82.8804 11.8912 82.9497 11.722 83.0919 11.5829C83.2342 11.4437 83.4034 11.3723 83.5995 11.3723C83.7956 11.3723 83.9648 11.4437 84.1071 11.5829C84.2455 11.722 84.3186 11.8912 84.3186 12.0868ZM83.0266 17.5699C83.0266 18.1942 83.1727 18.732 83.4726 19.1908C83.7687 19.6496 84.134 19.9166 84.5723 20.0031H85.0184C85.4567 19.9204 85.822 19.6496 86.1181 19.1908C86.4142 18.732 86.5642 18.1942 86.5642 17.5699C86.5642 17.239 86.518 16.9231 86.4257 16.6222C86.3335 16.3251 86.2066 16.0656 86.0451 15.8438C85.8836 15.6219 85.6951 15.4451 85.4837 15.3135C85.2722 15.1819 85.0453 15.1142 84.8069 15.1142C84.5685 15.1142 84.3378 15.1781 84.1186 15.3135C83.8994 15.4451 83.7072 15.6219 83.5457 15.8438C83.3842 16.0656 83.2573 16.3251 83.165 16.6222C83.0727 16.9231 83.0266 17.2352 83.0266 17.5699ZM86.7103 12.0868C86.7103 12.2823 86.6372 12.4478 86.4988 12.5794C86.3604 12.7148 86.1873 12.7788 85.9912 12.7788C85.7951 12.7788 85.6221 12.7148 85.4837 12.5794C85.3414 12.4478 85.2722 12.2823 85.2722 12.0868C85.2722 11.8912 85.3414 11.722 85.4837 11.5829C85.6221 11.4437 85.7951 11.3723 85.9912 11.3723C86.1873 11.3723 86.3565 11.4437 86.4988 11.5829C86.6411 11.722 86.7103 11.8912 86.7103 12.0868Z" fill="#221F20"/>
<path d="M90.2861 21.0787H88.4019C88.1904 21.0787 88.0135 21.0185 87.8712 20.8944C87.7328 20.7703 87.6598 20.6537 87.6598 20.5409C87.6598 20.4281 87.729 20.3153 87.8712 20.1911C88.0135 20.067 88.1866 20.0031 88.4019 20.0031H90.2861V21.0787Z" fill="#221F20"/>
<path d="M90.2832 21.0785C90.0717 21.0785 89.8949 21.0183 89.7564 20.8942C89.6142 20.7701 89.5449 20.6536 89.5449 20.5407C89.5449 20.4279 89.6142 20.3113 89.7564 20.191C89.8949 20.0669 90.0756 20.0067 90.2832 20.0067H93.1402V14.7267H94.24V20.0067H95.1936V21.0823H90.2832V21.0785ZM91.5098 13.5646C91.3099 13.5646 91.1407 13.4969 91.0023 13.3577C90.86 13.2186 90.7908 13.0531 90.7908 12.8613C90.7908 12.6695 90.86 12.5041 91.0023 12.3649C91.1407 12.2258 91.3099 12.1581 91.5098 12.1581C91.7098 12.1581 91.8752 12.2258 92.0174 12.3649C92.1597 12.5041 92.2289 12.6695 92.2289 12.8613C92.2289 13.0531 92.1559 13.2186 92.0174 13.3577C91.8752 13.4969 91.706 13.5646 91.5098 13.5646ZM93.3094 11.1652C93.3094 11.357 93.2402 11.5263 93.0979 11.6729C92.9557 11.8196 92.7865 11.8911 92.5904 11.8911C92.3943 11.8911 92.2251 11.8196 92.0828 11.6729C91.9405 11.5263 91.8713 11.3608 91.8713 11.1652C91.8713 10.9697 91.9405 10.8117 92.0828 10.6801C92.2251 10.5485 92.3943 10.4846 92.5904 10.4846C92.7865 10.4846 92.9557 10.5485 93.0979 10.6801C93.2402 10.8117 93.3094 10.9735 93.3094 11.1652ZM93.6709 13.5646C93.4709 13.5646 93.3017 13.4969 93.1633 13.3577C93.021 13.2186 92.9518 13.0531 92.9518 12.8613C92.9518 12.6695 93.021 12.5041 93.1633 12.3649C93.3017 12.2258 93.4748 12.1581 93.6709 12.1581C93.867 12.1581 94.0362 12.2258 94.1784 12.3649C94.3207 12.5041 94.3899 12.6695 94.3899 12.8613C94.3899 13.0531 94.3207 13.2186 94.1784 13.3577C94.04 13.4969 93.867 13.5646 93.6709 13.5646Z" fill="#221F20"/>
<path d="M99.0243 21.0787H95.2137C95.0022 21.0787 94.8253 21.0185 94.6831 20.8944C94.5446 20.7703 94.4716 20.6537 94.4716 20.5409C94.4716 20.4281 94.5408 20.3153 94.6831 20.1911C94.8253 20.067 95.0022 20.0031 95.2137 20.0031H99.0243V21.0787Z" fill="#221F20"/>
<path d="M99.9776 10.1506H101.077V21.0792L99.0243 21.0787C98.8128 21.0787 98.6356 21.0191 98.4934 20.8912C98.3511 20.7671 98.2819 20.6505 98.2819 20.5415C98.2819 20.4324 98.3511 20.312 98.4934 20.1879C98.6318 20.0638 98.8128 20.0031 99.0243 20.0031L99.9776 20.0037V10.1506Z" fill="#221F20"/>
<path d="M103.869 10.214H102.769V21.0788H103.869V10.214Z" fill="#221F20"/>
<path d="M113.858 21.0785H112.693C112.328 21.0785 111.912 21.0296 111.455 20.9318C110.997 20.834 110.567 20.6761 110.163 20.4542C109.759 20.2323 109.421 19.939 109.148 19.5742C108.871 19.2094 108.736 18.7581 108.736 18.2203C108.736 17.7239 108.836 17.2726 109.032 16.8665C109.228 16.4603 109.486 16.0955 109.794 15.7683C110.105 15.4449 110.455 15.1591 110.84 14.9109C111.228 14.6627 111.612 14.4521 111.993 14.2791C112.374 14.1061 112.731 13.967 113.062 13.8654C113.393 13.7639 113.658 13.6887 113.858 13.6473V21.0785ZM112.758 19.9616V15.1591C112.505 15.2682 112.208 15.4148 111.87 15.5954C111.532 15.7721 111.216 15.994 110.916 16.246C110.62 16.5017 110.367 16.795 110.155 17.126C109.944 17.4569 109.836 17.8292 109.836 18.2429C109.836 18.5588 109.928 18.8296 110.113 19.0515C110.297 19.2733 110.528 19.4539 110.813 19.5892C111.093 19.7284 111.397 19.8262 111.72 19.8788C112.047 19.9352 112.347 19.9616 112.631 19.9616H112.758ZM111.616 11.8685C111.616 12.064 111.543 12.2295 111.405 12.3649C111.263 12.504 111.093 12.5717 110.897 12.5717C110.701 12.5717 110.528 12.504 110.39 12.3649C110.251 12.2295 110.178 12.0603 110.178 11.8685C110.178 11.6767 110.247 11.5112 110.39 11.3721C110.532 11.2329 110.701 11.1652 110.897 11.1652C111.093 11.1652 111.263 11.2329 111.405 11.3721C111.543 11.5112 111.616 11.6767 111.616 11.8685ZM114.008 11.8685C114.008 12.064 113.939 12.2295 113.797 12.3649C113.654 12.504 113.485 12.5717 113.289 12.5717C113.093 12.5717 112.924 12.504 112.781 12.3649C112.639 12.2295 112.57 12.0603 112.57 11.8685C112.57 11.6767 112.639 11.5112 112.781 11.3721C112.92 11.2329 113.089 11.1652 113.289 11.1652C113.489 11.1652 113.654 11.2329 113.797 11.3721C113.939 11.5112 114.008 11.6767 114.008 11.8685Z" fill="#221F20"/>
<path d="M116.86 21.5565C116.86 22.0115 116.834 22.4741 116.776 22.9442C116.718 23.4105 116.595 23.8392 116.395 24.2266C116.199 24.6139 115.911 24.9261 115.526 25.1668C115.145 25.4074 114.63 25.5316 113.98 25.5316V24.456C114.392 24.456 114.715 24.3733 114.953 24.2078C115.192 24.0423 115.372 23.8242 115.492 23.5572C115.611 23.2864 115.684 22.9818 115.715 22.6358C115.742 22.2898 115.757 21.9325 115.757 21.5602V14.7082H116.857V20.007H117.806V21.0826H116.857V21.5602L116.86 21.5565Z" fill="#221F20"/>
<path d="M119.7 21.0787H117.816C117.604 21.0787 117.428 21.0185 117.285 20.8944C117.147 20.7703 117.074 20.6537 117.074 20.5409C117.074 20.4281 117.143 20.3153 117.285 20.1911C117.428 20.067 117.601 20.0031 117.816 20.0031H119.7V21.0787Z" fill="#221F20"/>
<path d="M122.548 21.0787H119.7C119.489 21.0787 119.311 21.0185 119.168 20.8944C119.026 20.7703 118.957 20.6537 118.957 20.5409C118.957 20.4281 119.03 20.3153 119.168 20.1911C119.311 20.067 119.485 20.0031 119.7 20.0031H122.548V21.0787Z" fill="#221F20"/>
<path d="M124.664 14.7041H125.763V21.0786L122.548 21.0787C122.337 21.0787 122.16 21.0146 122.018 20.8943C121.876 20.7702 121.807 20.6536 121.807 20.5408C121.807 20.428 121.88 20.3151 122.018 20.1873C122.16 20.0632 122.333 20.0031 122.548 20.0031L124.664 20.003V14.7041ZM125.998 12.1469C125.675 12.0077 125.371 11.94 125.087 11.94C124.902 11.94 124.756 11.9739 124.641 12.0453C124.529 12.113 124.471 12.2409 124.471 12.4214C124.471 12.6846 124.575 12.8802 124.791 12.9968C125.002 13.1171 125.264 13.1735 125.575 13.1735H126.102V13.7113H123.268V13.1735H124.175C124.118 13.1472 124.064 13.0532 124.006 12.9028C123.948 12.7486 123.922 12.5906 123.922 12.4214C123.922 12.0453 124.041 11.7783 124.279 11.6241C124.518 11.4699 124.779 11.3947 125.064 11.3947C125.444 11.3947 125.825 11.4737 126.206 11.6241L125.994 12.1469H125.998Z" fill="#221F20"/>
<path d="M128.578 10.214H127.478V21.0788H128.578V10.214Z" fill="#221F20"/>
<path d="M130.016 14.9107C130.297 14.6776 130.658 14.4557 131.093 14.2488C131.531 14.042 132.054 13.9367 132.662 13.9367C133.227 13.9367 133.719 14.0495 134.142 14.2789C134.565 14.5046 134.915 14.8054 135.196 15.1777C135.473 15.5501 135.68 15.975 135.819 16.4489C135.957 16.9265 136.026 17.4116 136.026 17.908C136.026 18.2803 135.995 18.6414 135.934 18.9836C135.872 19.3296 135.796 19.638 135.707 19.9125C135.615 20.1908 135.523 20.4277 135.426 20.627C135.33 20.8263 135.253 20.9768 135.2 21.0708H129.958V19.9952H134.507C134.592 19.7884 134.684 19.5101 134.78 19.1679C134.88 18.8256 134.93 18.4044 134.93 17.9043C134.93 17.5207 134.877 17.1484 134.773 16.7986C134.665 16.4451 134.519 16.1405 134.331 15.8772C134.138 15.614 133.9 15.4034 133.611 15.2454C133.323 15.0875 133 15.0085 132.65 15.0085C132.354 15.0085 132.05 15.0612 131.739 15.1627C131.431 15.268 131.077 15.456 130.681 15.7343L130.024 14.907L130.016 14.9107Z" fill="#221F20"/>
<path d="M178.807 30.2472C178.703 30.77 178.507 30.9956 178.027 31.3265C177.777 30.5443 177.623 29.9238 178.753 27.6222C177.98 29.8787 178.315 30.627 178.315 30.627C178.315 30.627 178.626 30.5029 178.803 30.2435M177.561 28.6677C177.561 28.6677 177.292 28.16 177.984 26.1969C176.719 28.066 177.273 29.3634 177.273 29.3634C177.273 29.3634 177.938 29.04 178.107 28.3368C177.915 28.5775 177.561 28.6639 177.561 28.6639M182.087 25.3282C181.879 27.3063 181.714 27.7125 181.499 28.0547C181.322 27.9344 181.172 27.5282 181.172 27.5282C181.107 27.8855 181.195 28.4345 181.51 28.7279C181.933 28.2127 182.229 27.1183 182.087 25.3282ZM181.687 24.0082C181.368 26.2195 181.007 26.7272 180.757 27.1032C180.576 26.9679 180.407 26.4226 180.407 26.4226C180.322 26.8212 180.391 27.4417 180.726 27.7764C181.222 27.2161 181.764 26.0202 181.687 24.0044M179.988 26.1443C179.772 25.5388 179.826 24.9484 179.826 24.9484C179.519 25.8096 179.611 26.5241 179.926 26.8851C180.449 26.3586 181.203 24.7114 181.103 23.1808C180.791 25.0123 180.261 25.787 179.988 26.1443ZM179.176 24.8844C179.022 24.2639 179.107 23.3312 179.107 23.3312C178.715 24.1661 178.765 25.3019 179.046 25.6855C179.618 25.2041 180.411 23.7788 180.464 22.2444C179.972 24.042 179.488 24.546 179.18 24.8807M181.933 28.6188C181.903 29.0776 182.31 29.3634 182.31 29.3634C182.31 29.3634 182.972 28.4421 182.714 26.8438C182.579 28.333 182.241 28.8482 182.241 28.8482C182.241 28.8482 181.979 28.7279 181.933 28.6188ZM182.702 29.3033C182.691 29.7094 183.06 29.9501 183.06 29.9501C183.06 29.9501 183.606 29.119 183.325 27.72C183.256 29.0363 182.937 29.5252 182.937 29.5252C182.937 29.5252 182.741 29.4011 182.699 29.307M155.121 28.1149C154.905 27.7727 154.74 27.3665 154.536 25.3884C154.394 27.1747 154.694 28.2728 155.113 28.7881C155.428 28.4985 155.517 27.9494 155.451 27.5921C155.451 27.5921 155.301 27.9983 155.124 28.1149M155.87 27.1634C155.617 26.7873 155.259 26.2796 154.94 24.0683C154.863 26.0803 155.405 27.28 155.901 27.8366C156.239 27.4981 156.309 26.8814 156.22 26.4827C156.22 26.4827 156.051 27.028 155.87 27.1634ZM156.639 26.2082C156.366 25.8509 155.832 25.0762 155.524 23.2447C155.424 24.7754 156.178 26.4226 156.701 26.9491C157.016 26.588 157.109 25.8735 156.801 25.0123C156.801 25.0123 156.851 25.6027 156.639 26.2082ZM157.447 24.9484C157.143 24.6136 156.655 24.1097 156.163 22.3121C156.216 23.8427 157.005 25.2718 157.581 25.7531C157.858 25.3658 157.908 24.2301 157.516 23.3952C157.516 23.3952 157.597 24.3278 157.443 24.9484M154.382 28.9159C154.382 28.9159 154.044 28.4007 153.909 26.9114C153.652 28.5098 154.313 29.4311 154.313 29.4311C154.313 29.4311 154.721 29.1453 154.69 28.6865C154.648 28.7956 154.382 28.9159 154.382 28.9159ZM153.686 29.5891C153.686 29.5891 153.367 29.1002 153.298 27.7839C153.013 29.1829 153.559 30.014 153.559 30.014C153.559 30.014 153.932 29.7734 153.921 29.3672C153.879 29.4612 153.682 29.5853 153.682 29.5853M158.308 30.6797C158.308 30.6797 157.997 30.5556 157.816 30.2961C157.92 30.8188 158.116 31.0445 158.597 31.3754C158.847 30.5932 159 29.9727 157.87 27.6749C158.643 29.9313 158.308 30.6797 158.308 30.6797ZM159.058 28.7241C159.058 28.7241 158.704 28.6339 158.512 28.3932C158.681 29.0964 159.346 29.4199 159.346 29.4199C159.346 29.4199 159.9 28.1186 158.635 26.2533C159.327 28.2127 159.058 28.7204 159.058 28.7204M164.73 38.2425C164.857 37.2234 164.291 36.3433 164.199 35.9259C164.084 36.0462 164.08 36.3847 164.08 36.3847C163.707 35.9974 163.615 35.3129 163.534 35.0797C163.449 35.7792 163.196 36.1215 163.111 36.4599C163.265 36.4449 163.407 36.4035 163.565 36.2982C163.753 37.1444 164.472 37.3324 164.73 38.2425ZM172.297 36.4486C172.297 36.4486 172.289 36.1102 172.178 35.9898C172.09 36.4073 171.52 37.2835 171.651 38.3064C171.905 37.3963 172.628 37.2083 172.812 36.3621C172.97 36.4637 173.109 36.5088 173.27 36.5201C173.182 36.1816 172.928 35.8394 172.843 35.1437C172.762 35.3768 172.67 36.0613 172.297 36.4486ZM166.699 35.4408C166.591 35.0985 166.399 33.944 165.953 33.4438C165.772 34.2825 166.329 35.0835 166.699 35.4408ZM169.556 36.5652C169.755 36.0876 170.186 35.6288 170.171 34.1132C169.705 34.5645 169.509 35.9861 169.556 36.5652ZM168.644 37.1519C168.883 36.5427 168.867 35.7792 168.602 35.4521C168.394 36.1027 168.383 36.6818 168.644 37.1519ZM167.948 35.328C168.183 34.6285 168.125 33.7823 167.821 33.4137C167.618 34.1245 167.629 34.7751 167.948 35.328ZM172.924 29.1152C172.493 29.6831 172.37 30.9655 172.239 31.398C172.393 31.2626 173.182 29.4387 172.924 29.1152ZM172.959 27.0506C172.951 27.0318 173.674 25.8208 173.266 25.1477C172.797 25.2492 172.97 27.0581 172.959 27.0506ZM170.898 30.0178C170.898 30.0178 172.016 28.9686 171.978 27.6523C171.663 28.5361 170.901 28.9084 170.898 28.9084C170.898 28.9084 170.475 28.6527 170.286 28.081C170.136 29.4123 170.909 30.0291 170.898 30.0216M173.097 28.521C173.397 28.0585 173.812 27.3891 173.47 26.9566C173.312 27.3891 173.232 27.8892 173.097 28.521ZM169.617 33.6732C169.809 33.2332 170.305 32.4171 170.202 31.4657C169.779 31.823 169.579 33.1091 169.617 33.6732ZM171.228 32.2705C171.89 31.4732 172.239 30.5518 171.951 29.6079C171.359 30.5105 171.344 31.4281 171.228 32.2705ZM169.79 29.4725C169.609 30.1081 169.317 30.5255 168.833 31.0069C168.629 30.8188 168.425 30.6007 168.148 30.0554C168.041 31.1122 168.656 31.7289 169.01 31.9621C169.229 31.7853 169.952 30.7812 169.79 29.4763M166.898 32.1614C166.76 32.1276 166.106 31.5296 165.906 31.1535C166.006 31.7515 166.845 32.9324 167.248 33.1731C167.379 32.9587 167.871 32.0072 167.441 30.4917C167.26 31.4093 167.068 31.8681 166.898 32.1614ZM162.992 24.9446C162.907 24.4181 163.572 23.9367 163.345 23.0943C162.684 23.8239 162.811 24.5159 162.992 24.9446ZM164.334 31.1648C164.707 31.7816 164.999 32.0599 165.295 32.3532C164.83 31.6612 164.457 30.3864 163.995 30.0366C163.953 30.2284 164.118 30.8151 164.334 31.1648ZM164.007 28.3104C163.753 29.3747 164.841 30.3976 164.845 30.4127C164.845 30.4277 164.845 29.1491 164.007 28.3104ZM164.78 26.306C164.764 26.7573 164.772 27.1747 164.661 27.6711C164.353 27.5959 164.207 27.3928 163.98 27.201C164.165 27.8065 164.93 28.5022 165.049 28.6752C165.157 27.8554 165.191 26.8588 164.776 26.3022M164.299 23.5494C164.603 22.4813 165.214 21.8721 165.426 21.2553C164.334 22.0112 164.107 23.1771 164.299 23.5494ZM163.361 28.2277C163.215 27.3251 163.276 26.7159 162.819 25.9186C162.673 26.8738 163.261 28.0886 163.361 28.2277ZM166.087 24.7001C165.349 25.5952 166.487 26.7159 166.479 26.7309C166.476 26.7234 166.572 25.0348 166.087 24.7001ZM166.633 22.2557C165.541 23.0567 166.06 23.8051 166.256 24.2188C166.479 23.4365 166.572 23.2259 166.633 22.2557ZM167.271 29.4499C167.46 29.0513 167.987 28.2879 167.714 27.0205C167.618 27.9757 166.995 28.3969 166.998 28.3969C166.998 28.3969 166.649 28.2089 166.368 27.6297C166.46 28.7918 166.902 29.1265 167.271 29.4499ZM172.828 22.3873C172.747 22.9853 173.462 24.3542 173.489 24.4632C173.505 24.3617 173.897 23.2222 172.828 22.3873ZM171.351 19.9992C171.255 20.5145 172.101 21.2892 172.097 21.2929C172.097 21.2929 172.213 20.3114 171.351 19.9992ZM172.589 23.9217C172.339 25.0574 171.836 25.4861 171.836 25.4861C171.836 25.4861 171.436 25.1702 171.094 24.7302C171.071 25.6478 171.874 26.5354 171.863 26.5279C171.859 26.5203 172.843 25.7569 172.593 23.9217M170.263 21.8081C169.825 22.2707 170.236 23.1959 170.486 24.0232C170.721 23.6171 170.997 22.2444 170.263 21.8081ZM170.64 20.5069C170.636 20.1008 170.509 19.39 169.567 19.2546C169.506 19.7322 170.336 20.0256 170.64 20.5069ZM169.606 18.7732C169.821 18.9876 170.513 19.1456 170.901 19.4991C170.848 18.9199 170.24 18.5551 169.606 18.7732ZM168.656 21.4095C167.991 22.1128 168.398 22.7032 168.398 22.6994C168.398 22.6882 169.209 21.842 168.656 21.4095ZM169.652 28.1562C169.652 28.1562 170.494 27.3891 170.567 25.8133C170.094 26.5918 169.575 27.028 169.575 27.028C169.575 27.028 169.125 26.7309 168.756 26.2872C168.76 27.2875 169.659 28.16 169.652 28.1562ZM168.41 23.8239C167.664 24.9145 168.41 26.0502 168.406 26.0465C168.402 26.039 168.917 24.5309 168.41 23.8239ZM168.663 16.0279C168.867 16.2272 169.517 16.498 169.879 16.8289C169.829 16.2836 169.34 15.9903 168.663 16.0279ZM169.002 16.6597C168.621 16.2197 168.11 16.058 167.852 16.0204C168.16 16.3852 168.475 16.6936 169.002 16.6597ZM170.348 17.7767C170.321 17.6563 170.013 17.2351 169.359 17.0997C169.536 17.2614 169.648 17.5585 169.709 17.6676C169.582 17.7353 169.236 17.7691 169.121 17.7879C169.359 17.9534 169.802 17.991 170.348 17.7804M164.472 16.1971C164.414 16.2348 164.361 16.4153 164.572 16.4228C164.749 16.4266 164.784 16.2348 164.784 16.2348C164.784 16.2348 164.561 16.1445 164.472 16.1971ZM170.159 5.30233C169.952 5.1519 169.817 5.0466 169.602 4.89993C169.413 5.02404 169.198 5.20079 169.056 5.30985C169.244 5.449 169.386 5.55806 169.59 5.70473C169.813 5.54678 169.909 5.47156 170.159 5.30233ZM166.675 15.7308C166.675 15.7308 166.752 15.8587 166.718 16.0806C166.687 16.2987 166.587 16.5055 166.252 16.5845C165.899 16.6672 165.533 16.4491 165.518 16.0843C165.514 15.9903 165.541 15.87 165.587 15.7872C165.468 15.8023 165.464 15.8812 165.349 16.0242C165.28 16.1107 165.164 16.1031 165.003 16.2047C165.003 15.9941 165.241 15.6594 165.507 15.5428C165.899 15.3698 167.268 15.3096 168.24 15.8023C167.898 15.7421 167.602 15.7647 167.279 15.7459C166.883 15.7233 166.675 15.7271 166.675 15.7271M166.499 15.7346C166.456 15.712 166.152 15.712 166.118 15.7759C166.083 15.8361 166.302 15.9301 166.376 15.9565C166.418 15.9715 166.479 15.9489 166.514 15.8888C166.549 15.8286 166.541 15.7571 166.499 15.7346ZM171.032 7.92355C168.352 7.77689 163.119 8.05142 160.542 8.74339C160.542 8.74339 160.273 8.08903 160.042 7.8521C159.358 7.1338 159.077 7.91227 159.073 8.00629C159.935 8.05518 160.085 8.48766 160.085 8.48766C159.881 8.85621 159.727 8.9728 159.25 9.29622C159.096 9.40152 158.547 9.73622 157.781 9.80016C156.159 9.87537 156.601 8.22817 157.585 7.55124C157.458 7.70167 156.878 8.56288 157.235 9.00664C157.643 9.4993 159.135 9.0969 159.496 8.65314C159.296 8.46886 158.931 8.41621 158.401 8.46134C158.427 8.20185 158.547 7.52868 159.323 6.88559C159.604 6.94953 160.396 7.36697 160.669 8.02509C163.034 7.40457 167.371 7.22782 167.579 7.2203C167.529 6.82166 167.387 5.30233 167.379 5.21207C167.36 4.96386 167.525 4.85104 167.691 4.7495C167.871 5.05788 168.037 5.19703 168.437 5.3437C168.283 5.52421 168.133 5.60319 167.956 5.74234C167.979 6.04695 168.01 6.59978 168.017 6.82166C168.402 6.65995 168.94 6.43431 169.598 6.28388C169.832 6.23123 170.125 6.19738 170.313 6.21995C170.54 6.24627 170.813 6.36285 170.944 6.47944C171.059 6.58098 171.197 6.75021 171.201 6.96457C171.205 7.33688 171.124 7.66406 171.024 7.92355M170.471 6.93825C170.136 6.40046 168.894 6.88559 168.106 7.20526C168.563 7.19773 168.952 7.18645 169.44 7.19397C169.636 7.19773 170.152 7.2015 170.494 7.21278C170.525 7.115 170.536 7.04731 170.467 6.93825M159.296 9.77383C159.143 9.72494 159 9.68357 158.816 9.63092C158.693 9.80392 158.562 10.0333 158.477 10.18C158.712 10.2514 158.889 10.3079 159.143 10.3831C159.243 10.2289 159.304 10.1349 159.389 10.0032C159.543 10.0521 159.681 10.0935 159.858 10.1499C159.996 9.93554 160.062 9.83024 160.219 9.60084C159.962 9.52186 159.792 9.46545 159.531 9.394C159.446 9.50682 159.366 9.64597 159.293 9.77007M179.084 7.81825C179.615 7.77313 180.107 7.90099 180.33 7.6603C179.999 7.56629 179.665 7.47979 179.549 7.31808C179.692 7.20526 179.895 7.35945 179.999 7.44594C180.072 7.37449 180.111 7.3444 180.195 7.26919C179.853 6.9909 179.315 7.15637 179.196 7.44218C179.292 7.49107 179.445 7.54372 179.495 7.61141C179.38 7.64526 179.172 7.75808 179.08 7.81825M178.776 8.781C178.561 9.26989 178.373 9.76255 178.127 10.2063C178.276 10.2665 178.476 10.1424 178.615 10.0559C179.272 9.66101 179.745 8.57792 179.999 7.93484C180.007 7.91227 179.618 8.01381 179.411 8.10031C179.022 8.2733 178.953 8.37108 178.773 8.781M173.804 9.01416C173.97 9.17211 174.089 9.29622 174.266 9.46921C174.512 9.33759 174.624 9.27365 174.897 9.14203C174.72 8.96904 174.604 8.84493 174.412 8.6757C174.204 8.77724 173.962 8.92391 173.804 9.01793M178.242 8.51399C178.134 8.87126 177.865 9.08562 177.7 9.30374C176.785 8.95775 174.762 8.45382 173.651 8.34476C173.351 8.66818 172.897 9.10066 172.428 9.21348C171.736 9.13075 171.29 8.95399 170.809 8.75468C171.078 8.76972 171.159 8.76972 171.347 8.76596C172.032 8.74715 172.639 8.53655 173.078 8.26954C172.109 8.12663 171.882 7.86714 172.351 7.26167C172.566 6.9909 172.92 6.49448 173.432 6.62234C173.831 6.72388 173.931 7.28047 173.885 7.70543C175.016 7.84082 176.462 8.22065 177.561 8.5892C177.634 8.28082 177.431 8.12663 177.3 7.90475C177.469 7.73552 177.711 7.53244 177.907 7.40834C178.188 7.56253 178.35 8.17176 178.246 8.51775M172.905 7.11124C172.905 7.11124 172.712 7.21654 172.616 7.40834C172.705 7.53996 172.874 7.59261 173.132 7.63022C173.166 7.63774 173.232 7.6415 173.27 7.64526C173.393 7.37073 173.135 7.03226 172.901 7.11124M160.835 9.35263C161.058 9.45041 161.223 9.52562 161.465 9.6234C161.634 9.42408 161.711 9.33007 161.904 9.1157C161.661 9.01416 161.5 8.93895 161.25 8.84117C161.1 8.99912 160.942 9.21348 160.835 9.34887M188.474 50.6341C186.997 53.481 185.152 55.2523 182.633 56.8167C178.953 59.0995 175.12 58.5542 173.87 57.8434C173.87 57.8434 173.97 58.0841 174.004 58.1631C174.043 58.2496 174.097 58.3812 174.124 58.4564C174.616 59.7576 174.285 61.1002 172.482 61.3033C172.009 61.3559 171.478 61.3747 170.855 61.6605C170.421 61.8599 169.932 62.1833 169.398 62.7248C169.175 62.9542 168.71 63.5371 168.479 63.9922C168.248 63.5371 167.783 62.9542 167.56 62.7248C167.025 62.1833 166.541 61.8599 166.103 61.6605C165.48 61.3747 164.949 61.3559 164.472 61.3033C162.673 61.1002 162.346 59.7539 162.834 58.4489C162.861 58.3774 162.915 58.2458 162.949 58.1631L163.084 57.8434C162.173 58.3624 159.908 58.761 157.278 58.0615C157.212 58.0427 157.085 58.0126 157.02 57.9938C154.901 57.4448 153.025 56.4181 151.441 54.9552C149.526 53.1989 148.48 51.296 148.084 50.5777C144.588 43.5 145.077 33.0001 145.065 31.8794C144.95 19.7586 147.695 12.9554 150.053 9.66853C149.341 8.75467 148.91 8.19809 148.88 8.168C148.641 7.93484 148.238 7.57381 147.399 7.46099C147.169 5.8702 146.561 3.98608 146.561 3.98608C146.561 3.98608 148.188 5.12934 149.703 5.77242C149.587 6.56969 149.799 7.05859 150.006 7.35192C150.033 7.39329 150.376 7.83706 150.941 8.56664C151.983 7.29551 153.094 6.37038 154.84 5.38131C155.259 5.14814 155.709 4.9225 156.193 4.70814C156.163 4.05753 156.389 3.45205 156.828 3.01581C156.847 2.6435 157.166 2.17341 157.555 2.03426H157.558C157.962 1.92896 158.562 2.11324 158.858 2.38401C159.516 2.47427 160.146 2.80897 160.612 3.31667C162.046 3.01581 163.68 2.79769 165.553 2.68111C165.772 1.79357 166.364 1.14297 167.091 0.793222C167.279 0.405867 167.829 0.0185126 168.298 -0.0078125H168.306C168.775 0.0185126 169.325 0.405867 169.513 0.793222C170.244 1.14297 170.828 1.79357 171.055 2.68111C172.928 2.79393 174.562 3.01581 175.992 3.31667C176.458 2.80897 177.088 2.47427 177.746 2.38401C178.042 2.10948 178.642 1.9252 179.046 2.0305C179.434 2.17341 179.753 2.6435 179.772 3.01581C180.207 3.44829 180.434 4.05753 180.407 4.70814C180.891 4.9225 181.341 5.14814 181.76 5.38131C183.51 6.36661 184.725 7.44218 185.736 8.61177C186.359 7.80697 186.736 7.31056 186.767 7.26919C186.974 6.97585 187.186 6.49072 187.071 5.68968C188.586 5.05036 190.208 3.90334 190.208 3.90334C190.208 3.90334 189.605 5.78746 189.37 7.38201C188.532 7.49483 188.128 7.85962 187.89 8.08903C187.855 8.12287 187.363 8.75468 186.563 9.78887C188.909 13.0983 191.616 19.845 191.496 31.8869C191.512 32.8496 191.981 43.5602 188.482 50.6341M187.378 12.5643C185.902 12.8764 184.96 12.8539 184.41 12.8388C184.033 13.6248 183.733 14.3619 183.756 15.712C183.152 15.5353 182.837 15.3585 182.518 15.0313C182.095 15.5842 181.86 15.885 181.414 16.4604C185.306 23.2523 185.302 29.5214 185.371 31.2889C188.401 29.6041 190.312 28.0133 190.697 27.7012C190.335 21.417 189.343 16.6748 187.378 12.568M181.207 31.5033C181.114 32.2254 181.114 32.8421 181.299 33.5078C181.653 33.0602 181.883 32.639 182.145 31.853C182.145 32.4811 182.337 33.1806 182.472 33.4626C182.937 32.8007 183.202 30.1457 183.202 30.1457C183.202 30.1457 183.218 30.2096 183.456 30.2923C183.706 29.3409 183.568 27.3928 183.364 26.4752C183.002 24.8581 182.356 22.9025 180.338 20.5746C179.299 19.3787 178.423 19.9203 177.542 20.8529C176.127 22.3572 175.827 23.0266 174.131 23.3312C174.112 23.3312 174.108 23.335 174.124 23.3312C173.954 23.3613 174.081 23.4403 174.412 23.4365C176.454 23.4027 177.092 22.0827 177.704 21.4208C178.111 20.9808 178.63 20.5859 179.069 20.8341C179.234 20.9281 179.788 21.5599 179.215 23.1206C179.215 22.7634 179.076 22.455 179.003 22.376C178.738 23.4102 178.38 24.2413 177.954 24.9484C177.896 24.7754 177.861 24.6174 177.823 24.3955C177.623 25.6591 176.465 26.9716 176.3 28.773C176.181 28.5775 176.073 28.4496 176.065 27.987C175.193 29.5628 174.289 32.3871 174.85 33.8049C174.827 32.3645 175.731 30.2923 176.2 29.638C175.604 31.4883 174.904 33.7785 175.508 35.155C175.55 33.9741 176.242 32.0486 176.738 31.2476C175.912 34.29 175.569 35.8394 176.492 37.0128C176.331 35.877 176.808 34.1471 177.454 32.7331C177.027 35.1061 176.412 37.1782 177.546 38.2199C177.381 36.6668 177.984 34.5984 178.315 33.8688C177.942 36.1591 177.619 38.3704 178.376 39.476C178.376 38.6825 178.523 37.8664 178.688 37.0917C178.888 36.0876 179.188 35.1286 179.188 35.1286C179.188 35.1286 178.949 36.7307 178.823 38.6788C178.803 39.0059 178.792 39.3331 178.799 39.6603C178.807 40.0589 178.838 40.4651 178.923 40.8562C178.988 41.1909 179.088 41.5407 179.276 41.8378C179.484 39.2504 179.788 37.0165 180.141 35.9786C180.141 35.9786 179.838 38.4005 179.638 42.1048C179.63 42.2364 179.622 42.368 179.618 42.4997C179.369 47.8248 180.107 49.5322 180.338 50.0399C180.338 50.0399 180.288 49.9421 180.268 49.2539C180.249 48.6823 180.245 48.7199 180.311 48.0655C180.33 47.8775 179.826 46.8959 179.899 45.5797C179.941 44.7862 179.995 44.0002 180.065 43.233C180.126 42.5297 180.191 41.849 180.268 41.1947C180.353 40.5967 180.407 40.0251 180.495 39.4196C180.614 38.5584 180.787 37.7047 180.945 36.851C181.072 36.1741 181.003 36.7683 180.991 36.9338C180.926 37.701 180.784 39.3783 180.645 41.1007C180.553 42.3906 180.257 44.9404 180.318 46.1739C180.372 47.2419 180.687 47.712 180.68 47.8737C180.618 49.9496 180.83 50.7883 181.199 51.5705C181.199 51.5705 181.418 50.8297 181.587 49.897C181.549 49.9534 181.48 50.0512 181.372 50.085C181.107 49.4081 180.968 48.2272 181.145 47.0125C181.176 46.7944 180.849 46.5236 180.872 45.5421C180.91 44.0115 181.118 42.4884 181.314 40.969C181.383 40.4651 181.453 39.9687 181.526 39.5024C181.572 39.2015 181.618 38.9006 181.668 38.5998C181.733 38.1222 181.826 37.6408 181.929 37.1632C181.945 37.0842 181.96 37.009 181.976 36.9451C181.976 36.9488 181.96 37.2948 181.926 37.7574C181.753 39.807 181.28 45.0419 181.272 45.4556C181.253 46.4823 181.537 46.7906 181.522 46.9749C181.453 47.712 181.48 49.0809 181.591 49.4194C181.691 49.1185 181.749 48.5544 181.749 48.5544C181.749 48.5544 182.049 46.4334 182.391 43.4097C182.445 42.9434 182.495 42.4771 182.545 42.0145C182.591 41.5783 182.637 41.127 182.683 40.6682C182.733 40.1304 182.791 39.5926 182.837 39.0511C182.86 38.8217 182.879 38.5847 182.902 38.3516C183.029 36.93 183.175 35.3242 183.298 33.9064C183.298 33.9026 183.494 31.6011 183.537 30.9091C183.471 30.864 183.421 30.8264 183.421 30.8264C183.421 30.8264 183.156 33.6695 182.379 34.6698C182.172 34.4818 181.922 33.4175 181.937 33.0602C181.764 33.6243 181.057 34.384 181.057 34.384C181.057 34.384 180.814 33.8199 180.845 32.891C180.607 33.2257 180.403 33.4852 180.045 33.6695C179.899 33.3498 179.726 32.985 179.742 32.1012C179.615 32.263 179.403 32.4736 179.084 32.6541C178.992 32.436 178.469 31.6312 179.411 28.6602C179.038 31.4055 179.257 31.7252 179.334 31.9433C179.492 31.8794 179.649 31.7628 179.765 31.6688C179.803 31.1686 179.891 30.533 180.053 29.7094C179.915 31.8906 180.088 32.5789 180.261 33.0001C180.48 32.8459 180.791 32.4435 181.203 31.4958M174.354 32.4284C174.574 29.6079 175.073 27.9043 175.466 26.4451C173.939 28.0698 174.158 31.8418 174.354 32.4284ZM174.639 26.2684C175.123 24.8506 174.716 24.1323 174.435 23.9856C174.424 24.6362 174.604 24.9446 174.639 26.2684ZM175.873 27.4417C176.25 26.1405 176.465 25.3545 176.465 24.2827C176.123 24.6588 175.827 26.0615 175.873 27.4417ZM177.192 24.655C177.311 24.1887 177.323 23.5682 177.246 23.0755C177.035 23.5606 176.777 24.5986 176.831 25.5576C176.954 25.2755 177.111 24.9747 177.196 24.655M173.697 35.3167C173.697 35.2903 173.697 35.264 173.712 35.2452C173.712 35.2452 173.728 35.2339 173.731 35.2339C173.743 35.2264 173.755 35.2264 173.755 35.2264C173.797 35.2264 173.847 35.2565 173.943 35.3167C173.997 35.3505 174.062 35.3919 174.143 35.4333C174.028 35.185 174.008 34.8165 173.978 34.3991C173.951 33.9779 173.935 33.5378 173.804 33.1129C173.804 33.1204 173.778 33.0715 173.774 33.0565C173.701 33.2671 173.551 33.4589 173.397 33.6582C173.174 33.944 172.947 34.2373 172.882 34.6322L172.866 34.7074L172.809 34.6548C172.924 34.7601 172.489 34.2749 172.486 34.2637C172.316 34.8842 171.228 36.223 170.978 36.5013C170.944 36.5502 170.528 37.1519 170.367 38.6524C170.213 40.0702 170.367 40.9427 170.367 40.9427L170.751 40.5366C170.751 40.5366 170.767 40.9314 170.721 41.3865C170.682 41.74 170.567 42.0183 170.567 42.0183C170.567 42.0183 171.328 42.1424 171.92 41.4429L172.024 41.7174C172.12 41.9882 172.193 42.3079 171.974 42.4771C171.94 42.5034 171.574 42.8156 171.62 43.1277C171.64 43.2368 171.701 43.3383 171.836 43.4323L171.847 43.4398V43.4549C171.863 43.6279 171.997 43.7219 172.082 43.7633C172.051 43.6203 172.07 43.5301 172.09 43.4699C172.166 43.2668 172.316 43.2142 172.428 43.2067C172.512 43.2029 172.601 43.2292 172.601 43.2292C172.601 43.2292 172.693 44.0904 172.77 44.4439C172.839 44.7561 172.924 45.1585 172.97 45.6022C172.978 45.7 172.989 45.8016 173.001 45.8993C173.035 46.1927 173.208 46.219 173.366 46.2453C173.447 46.2566 173.651 46.2453 173.739 46.2378L173.755 46.2453L173.735 46.2529C173.505 46.313 173.524 46.4033 173.528 46.4334C173.555 46.565 173.631 46.7267 173.547 47.0012L173.581 47.0313C173.928 46.847 173.928 46.5349 173.889 46.2604V46.2378L173.904 46.2265C174.166 46.0761 174.104 45.5646 173.728 44.7787C173.551 44.4101 173.478 43.7971 173.593 43.7407C173.601 43.7369 173.608 43.7332 173.612 43.7332C173.67 43.7219 173.747 43.7294 173.924 43.9851C174.047 44.1619 174.17 44.3086 174.324 44.5004C174.474 44.6809 174.574 44.8463 174.57 44.9968C174.57 45.0532 174.554 45.0946 174.524 45.1171C174.497 45.1359 174.462 45.1472 174.408 45.151C174.331 45.1547 174.235 45.1434 174.162 45.1322C174.247 45.2187 174.566 45.5759 174.662 45.4669C174.9 45.1961 174.685 45.6323 175.104 45.6775C175.373 45.6887 175.569 45.5158 175.581 45.1923C175.581 45.0795 175.566 45.0043 175.546 44.9065C175.489 44.6019 175.25 44.301 175.131 44.1807L175.039 44.0829C174.339 43.327 174.397 43.1578 174.439 43.0863C174.508 42.966 174.57 42.9321 174.754 42.9284C175.027 42.9246 175.327 42.9622 175.343 42.966C175.627 43.0186 176.092 43.0901 176.081 43.2368C176.077 43.2631 176.046 43.3007 176.008 43.3157C175.912 43.3571 175.75 43.4135 175.723 43.3759C175.75 43.4173 175.846 43.4925 175.989 43.5564C176.108 43.6091 176.588 43.7445 176.738 43.5226L176.788 43.4248C176.877 43.4248 177.111 43.3872 177.158 43.233C177.204 43.0863 177.008 42.8795 176.804 42.7817C176.638 42.699 176.154 42.5147 175.762 42.3981C175.604 42.353 175.404 42.3154 175.258 42.274L174.412 42.0559C174.393 42.0484 173.951 41.913 173.785 41.8378C173.701 41.8002 173.639 41.7738 173.601 41.755C173.458 41.6761 173.351 41.5933 173.243 41.4542C173.151 41.3301 173.059 40.9878 172.959 40.623C173.062 40.6795 173.316 40.8487 173.631 40.8901C173.605 40.766 173.581 40.3598 173.605 40.1454C173.735 38.7841 173.766 37.9981 173.766 37.9981C173.766 37.9981 174.008 38.2425 174.047 38.2801C174.093 38.047 174.008 37.4753 173.962 36.9037V36.8924C173.928 36.5051 173.816 35.8657 173.689 35.3129M174.697 41.8114L175.35 41.9807C175.45 42.007 175.554 42.0333 175.666 42.0559C175.777 41.7513 175.831 41.4354 175.819 41.1232C175.804 40.7697 176.638 41.5181 177.188 42.0596C177.419 42.289 177.465 42.1875 177.331 42.0108C176.777 41.2661 175.685 40.5666 175.373 40.3786C174.847 40.0589 174.581 40.1379 174.762 40.42C174.97 40.7434 174.923 41.2624 174.697 41.8077M175.677 47.1178C176.3 47.8812 177.288 49.3103 177.665 49.7014C178.48 50.5326 178.826 50.6266 179.453 50.6642C179.253 50.0963 179.038 49.5435 178.092 48.0655C177.588 47.2833 176.75 46.0347 175.892 45.0908C175.892 45.2337 175.877 45.3766 175.835 45.5158C175.819 45.5496 175.804 45.5797 175.789 45.606C175.731 45.7038 175.658 45.7865 175.562 45.8505C175.423 45.9445 175.25 45.9821 175.081 45.9746C174.908 45.9558 174.766 45.8918 174.666 45.7828C174.566 45.794 174.466 45.764 174.366 45.7075C174.4 45.9971 174.347 46.2152 174.208 46.3694C174.208 46.5462 174.17 46.9072 173.881 47.1818C173.908 47.2231 173.928 47.2457 173.928 47.2457C174.131 47.603 174.043 47.7797 173.947 47.8925C173.858 47.9903 172.874 49.0659 172.651 49.2577C172.389 49.4908 172.109 49.2276 172.109 49.2276L171.947 49.096C171.947 49.096 171.693 49.3442 171.494 49.5435C171.513 49.5585 171.528 49.5773 171.547 49.5886C171.867 49.8782 172.259 50.0926 172.655 50.2543C173.012 50.4047 174.062 50.7845 174.766 51.0703C174.597 50.5626 174.4 49.9797 174.197 49.4081C174.377 49.6526 174.885 50.5288 175.323 51.3073C175.293 51.296 175.377 51.3298 175.35 51.3186C175.916 51.5705 176.669 51.9391 177.234 52.2775C177.188 52.082 177.15 51.9541 177.15 51.9541C177.15 51.9541 176.627 51.4276 176.269 50.9312C175.546 49.9158 175.081 48.8666 174.854 48.1595C175.669 49.363 175.881 49.7014 176.204 50.1226C177.231 51.4727 178.326 52.0594 178.749 52.0707C178.599 51.3186 178.33 51.1531 178.33 51.1531C178.33 51.1531 177.823 50.7356 177.277 50.0173C177.407 50.1903 177.531 50.352 177.25 49.9797C177.038 49.6977 177.123 49.8067 177.231 49.9534C176.758 49.3141 176.196 48.3701 175.677 47.1216M172.862 53.7517C174.254 53.9247 177.238 53.8834 178.311 53.4772C177.907 53.1575 176.204 52.0933 173.605 51.0741C173.07 50.8485 172.374 50.604 171.905 50.2731C171.617 50.07 171.417 49.9196 171.132 49.6638C170.275 48.8929 168.021 46.5913 167.621 46.1701L166.122 47.5165C166.122 47.5165 170.086 51.3035 171.086 51.8338C172.363 52.5107 176.019 53.323 176.019 53.323C176.019 53.323 173.216 53.1162 171.086 52.2738C169.805 51.7661 165.749 47.8549 165.749 47.8549L164.768 48.7425C165.272 49.284 166.356 50.4799 168.125 51.8864C169.359 52.868 170.848 53.5111 172.866 53.7555M168.571 52.8868C168.579 53.6314 169.194 54.3798 169.348 54.5076C169.348 54.5076 169.582 54.2256 169.694 53.496C169.175 53.2741 168.813 53.056 168.571 52.8868ZM161.804 48.1031C161.577 48.8101 161.115 49.8594 160.388 50.8748C160.035 51.3712 159.504 51.8939 159.504 51.8939C159.504 51.8939 159.477 51.9842 159.446 52.1309L159.339 52.191L159.931 51.8714C160.027 51.8262 160.123 51.7774 160.223 51.7285C160.612 51.5216 161.046 51.3298 161.477 51.1493C161.904 50.4009 162.403 49.5172 162.565 49.2802C162.515 49.4645 162.419 49.9647 161.961 50.95L162.284 50.8221C162.957 50.5626 163.542 50.3558 163.822 50.2279C164.291 50.0249 164.503 49.8443 164.687 49.7127C164.726 49.6864 164.791 49.6262 164.88 49.5473C164.891 49.5585 164.399 49.0772 164.399 49.0772L164.234 49.2088C164.234 49.2088 163.957 49.472 163.692 49.2426C163.472 49.0471 162.484 47.9753 162.396 47.8737C162.3 47.7609 162.188 47.5729 162.419 47.2306C162.419 47.2269 162.426 47.2231 162.434 47.2118C162.123 46.9373 162.08 46.5612 162.084 46.377C161.942 46.2265 161.892 46.0046 161.923 45.7151C161.827 45.7715 161.723 45.8016 161.623 45.7903C161.519 45.8993 161.381 45.967 161.211 45.9821C161.181 45.9821 161.165 45.9821 161.15 45.9821C160.981 45.9821 160.827 45.9407 160.708 45.8429C160.569 45.7301 160.569 45.7414 160.465 45.5421C160.458 45.527 160.454 45.5158 160.446 45.5007C159.877 46.0874 159.343 46.8358 158.581 48.0279C157.631 49.5059 157.408 50.0437 157.208 50.6115C157.831 50.5739 158.181 50.4837 158.997 49.6488C159.373 49.2614 160.362 47.8324 160.988 47.0689C160.462 48.3325 159.892 49.2878 159.416 49.9271C158.858 50.6717 158.301 51.123 158.301 51.123C158.301 51.123 158.066 51.2697 157.916 52.018C158.339 52.0105 159.435 51.4239 160.462 50.07C160.785 49.645 160.992 49.3103 161.807 48.1069M161.238 44.0904C160.938 44.4026 160.704 44.7523 160.7 45.1961C160.708 45.5158 160.908 45.6925 161.177 45.6812C161.596 45.6361 161.381 45.2036 161.619 45.4706C161.715 45.5797 162.034 45.2224 162.115 45.1359C161.934 45.1622 161.673 45.1923 161.715 44.9328C161.746 44.741 161.892 44.5793 162.015 44.4327C162.127 44.301 162.469 43.6617 162.692 43.7407C162.796 43.8159 162.734 44.4101 162.557 44.7787C162.184 45.5646 162.119 46.0761 162.38 46.2265L162.4 46.2378V46.2604C162.357 46.5349 162.357 46.847 162.703 47.0313L162.734 47.0012C162.649 46.7267 162.73 46.565 162.753 46.4334C162.757 46.4033 162.776 46.3168 162.55 46.2529L162.526 46.2453L162.542 46.2378C162.63 46.2453 162.83 46.2566 162.915 46.2453C163.069 46.219 163.245 46.1927 163.28 45.8993C163.292 45.7978 163.303 45.7 163.311 45.6022C163.361 45.1547 163.442 44.7523 163.511 44.4439C163.588 44.0904 163.68 43.2292 163.68 43.2292C163.68 43.2292 163.768 43.2029 163.853 43.2067C163.961 43.2179 164.111 43.2668 164.188 43.4699C164.211 43.5263 164.226 43.6203 164.199 43.7633C164.288 43.7219 164.422 43.6279 164.434 43.4549V43.4398L164.449 43.4323C164.584 43.3421 164.645 43.2368 164.661 43.1277C164.711 42.8156 164.341 42.5034 164.307 42.4771C164.088 42.3079 164.161 41.9882 164.257 41.7174L164.384 41.3902C164.495 41.5219 164.641 41.6572 164.814 41.7513C165.322 42.101 165.833 42.0183 165.833 42.0183C165.833 42.0183 165.718 41.74 165.68 41.3865C165.63 40.9314 165.645 40.5366 165.645 40.5366L166.033 40.9427C166.033 40.9427 166.264 40.1943 166.114 38.7765C165.941 37.1406 165.587 36.4975 165.514 36.2681C165.395 35.8996 165.183 35.5348 165.183 35.5348C165.183 35.5348 165.153 35.7303 164.876 35.9598C164.553 35.5649 163.984 34.7864 163.838 34.2599C163.753 34.4141 163.622 34.5532 163.515 34.651L163.453 34.7037L163.442 34.6285C163.376 34.2336 163.149 33.9402 162.926 33.6544C162.769 33.4551 162.619 33.2596 162.546 33.0527C162.415 33.4777 162.384 33.9515 162.361 34.3727C162.334 34.7902 162.311 35.1625 162.196 35.4069C162.277 35.3656 162.342 35.3242 162.396 35.2903C162.492 35.2302 162.542 35.2001 162.58 35.2038H162.611L162.623 35.2227C162.642 35.2415 162.642 35.2678 162.642 35.2941C162.515 35.8507 162.4 36.4975 162.369 36.8849C162.323 37.4565 162.365 37.9567 162.411 38.1899C162.45 38.1485 162.846 37.9454 162.846 37.9454C162.846 37.9454 162.588 38.7653 162.723 40.1266C162.742 40.3448 162.719 40.7509 162.696 40.8713C162.961 40.8336 163.184 40.7095 163.307 40.6381C163.207 40.9991 163.119 41.3338 163.026 41.4579C162.68 41.9205 161.95 42.0371 161.411 42.1762C160.746 42.3455 160.085 42.4846 159.466 42.7855C159.262 42.887 159.066 43.0901 159.112 43.2368C159.162 43.3947 159.396 43.4286 159.481 43.4286L159.531 43.5263C159.681 43.7482 160.162 43.6128 160.281 43.5602C160.419 43.4962 160.519 43.4173 160.542 43.3797C160.519 43.4173 160.358 43.3609 160.262 43.3195C160.223 43.3044 160.192 43.2631 160.189 43.2405C160.158 42.966 161.342 42.9284 161.511 42.9321C161.696 42.9321 161.757 42.9697 161.827 43.0901C161.869 43.1653 161.93 43.3308 161.227 44.0867M161.569 40.4012C161.75 40.1154 161.484 40.0401 160.958 40.3598C160.646 40.5478 159.554 41.2473 159 41.992C158.87 42.1725 158.912 42.2702 159.143 42.0408C159.693 41.4993 160.527 40.7509 160.512 41.1044C160.5 41.4203 160.554 41.74 160.673 42.0484C160.761 42.0296 160.846 42.0108 160.923 41.9882L161.642 41.8039C161.415 41.2549 161.365 40.7321 161.573 40.4049M160.377 29.6906C160.846 30.3487 161.75 32.4171 161.727 33.8575C162.288 32.4397 161.384 29.6154 160.512 28.0434C160.504 28.506 160.4 28.6339 160.277 28.8294C160.112 27.0243 158.958 25.7118 158.754 24.4482C158.716 24.6663 158.681 24.8242 158.624 25.001C158.201 24.294 157.843 23.4629 157.578 22.4287C157.505 22.5076 157.366 22.8198 157.366 23.1733C156.789 21.6126 157.347 20.9808 157.512 20.8868C157.951 20.6386 158.474 21.0334 158.877 21.4734C159.489 22.1353 160.127 23.4591 162.165 23.4892C162.496 23.493 162.626 23.414 162.453 23.3839C162.473 23.3877 162.465 23.3839 162.446 23.3839C160.75 23.0793 160.45 22.4136 159.035 20.9056C158.154 19.9692 157.282 19.4276 156.239 20.6273C154.221 22.9552 153.575 24.9145 153.213 26.5279C153.01 27.4455 152.871 29.3935 153.121 30.345C153.359 30.2623 153.375 30.1983 153.375 30.1983C153.375 30.1983 153.64 32.8572 154.105 33.519C154.244 33.237 154.432 32.5375 154.432 31.9132C154.69 32.6992 154.924 33.1166 155.278 33.5642C155.463 32.8985 155.467 32.2855 155.374 31.5635C155.782 32.5112 156.093 32.9173 156.313 33.0678C156.486 32.6466 156.662 31.9583 156.52 29.7771C156.686 30.6007 156.77 31.2363 156.809 31.7365C156.924 31.8305 157.082 31.9433 157.239 32.011C157.316 31.7891 157.535 31.4694 157.162 28.7279C158.101 31.6989 157.578 32.5074 157.489 32.7218C157.17 32.5413 156.962 32.3307 156.832 32.1689C156.847 33.0527 156.674 33.4213 156.528 33.7372C156.17 33.5529 155.966 33.2934 155.728 32.9587C155.759 33.8876 155.517 34.4517 155.517 34.4517C155.517 34.4517 154.809 33.692 154.636 33.1279C154.651 33.4852 154.401 34.5495 154.194 34.7338C153.417 33.7334 153.152 30.8903 153.152 30.8903C153.152 30.8903 153.098 30.9241 153.036 30.973C153.079 31.665 153.167 32.7406 153.275 33.9553C153.275 33.9553 153.275 33.9628 153.275 33.9666C153.398 35.3844 153.544 36.9902 153.671 38.4117C153.975 41.819 154.367 45.2224 154.828 48.6146C154.828 48.6146 154.89 49.1749 154.99 49.4796C155.097 49.1411 155.124 47.7722 155.059 47.0351C155.044 46.8508 155.324 46.5424 155.305 45.5158C155.297 45.0983 154.817 39.8671 154.655 37.8138C154.636 37.5618 154.601 37.0052 154.601 37.0015C154.617 37.0654 154.632 37.1406 154.648 37.2196C154.809 37.9943 154.936 38.7803 155.055 39.5588C155.128 40.0251 155.197 40.5177 155.267 41.0254C155.482 42.5373 155.67 44.0754 155.705 45.5985C155.728 46.5763 155.401 46.8508 155.432 47.0689C155.609 48.2836 155.47 49.4683 155.205 50.1414C155.097 50.1076 155.028 50.0098 154.99 49.9534C155.159 50.8861 155.378 51.6269 155.378 51.6269C155.747 50.8447 155.959 50.0061 155.897 47.9301C155.89 47.7684 156.205 47.2983 156.259 46.2303C156.274 45.9144 156.216 44.9103 156.128 43.6617C155.966 41.4354 155.77 39.2128 155.59 36.9902C155.582 36.8849 155.559 36.6179 155.559 36.5991C155.582 36.6969 155.609 36.7984 155.632 36.9075C156.274 39.7618 156.524 42.7366 156.678 45.6361C156.747 46.9523 156.243 47.9339 156.263 48.1219C156.332 48.7763 156.328 48.7387 156.309 49.3103C156.286 49.9948 156.239 50.0963 156.239 50.0963C156.466 49.5886 157.205 47.8812 156.955 42.5561C156.947 42.4282 156.939 42.2966 156.932 42.1612C156.732 38.4569 156.432 36.035 156.432 36.035C156.782 37.0692 157.089 39.3068 157.297 41.8904C157.324 41.8528 157.347 41.8077 157.374 41.7588C157.755 40.7697 157.82 39.7806 157.751 38.7352C157.624 36.7834 157.385 35.1888 157.389 35.1926C157.389 35.1926 157.435 35.3355 157.443 35.3505C157.512 35.5686 157.693 36.144 157.889 37.1444C158.031 37.8364 158.131 38.5359 158.185 39.2353C158.193 39.3331 158.197 39.4309 158.201 39.5249C158.958 38.423 158.631 36.2117 158.258 33.9177C158.593 34.651 159.193 36.7157 159.031 38.2688C160.165 37.2271 159.55 35.155 159.12 32.7819C159.766 34.196 160.239 35.9259 160.081 37.0616C161.004 35.8883 160.658 34.3389 159.835 31.3002C160.335 32.1012 161.027 34.0267 161.065 35.2038C161.665 33.8274 160.969 31.5371 160.373 29.6869M170.594 36.4186C170.594 36.4186 171.082 35.9635 171.259 34.4667C171.355 34.5796 171.528 34.6886 171.578 34.8992C171.89 34.5307 172.505 32.5187 172.57 31.838C172.774 31.9245 172.593 31.8794 172.828 31.9959C172.993 31.7026 173.347 30.5594 173.501 28.9761C173.578 28.9987 173.708 28.9987 173.766 29.0626C173.874 28.3405 173.981 27.1747 174.012 26.3624C174.043 25.6629 174.02 24.2188 173.712 23.3914C173.408 22.5678 173.266 22.1241 172.778 21.3681C172.778 21.3681 172.601 21.4509 172.516 21.5675C172.382 21.1651 172.009 20.1986 171.824 19.8488C171.359 18.965 171.14 18.3897 170.655 18.0926C170.874 18.1038 170.959 18.1527 171.236 18.1414C170.921 17.8519 170.801 17.6525 170.444 17.3855C170.563 17.3103 170.767 17.3178 171.101 17.3743C170.624 16.9493 170.463 16.2987 169.236 15.8436C169.456 15.806 169.625 15.8775 169.917 15.87C169.759 15.6368 169.386 15.2457 168.775 15.0689C167.514 14.8282 165.779 14.7869 164.968 15.7271C164.91 15.791 164.691 15.8361 164.495 15.9076C164.357 15.9565 164.299 15.9978 164.264 16.0242C164.122 16.1257 164.095 16.2648 164.364 16.6409C164.011 16.592 163.922 16.2611 163.857 16.2912C163.73 16.3739 163.611 16.4754 163.484 16.6635C163.369 16.8365 163.265 17.2013 163.292 17.3555C163.334 17.3893 163.63 17.5172 163.688 17.1787C163.707 17.0621 164.261 17.0095 164.449 17.0095C164.726 17.0095 164.98 17.0734 165.326 17.0584C165.203 17.1035 164.814 17.2125 164.672 17.2502C164.518 17.2953 164.503 17.457 164.649 17.4683C164.807 17.4871 164.876 17.4156 165.034 17.3818C165.107 17.4231 165.034 17.5924 165.091 17.6902C166.106 17.4608 166.179 18.5288 167.26 18.3182C166.752 17.9308 166.318 17.2802 165.918 17.0847C166.983 17.2464 167.564 18.1866 168.717 18.2317C168.689 18.159 168.642 18.0587 168.575 17.9308C168.971 17.9308 169.248 18.2279 169.367 18.2167C169.217 18.3708 168.886 18.4987 168.448 18.5551C168.525 18.698 168.96 18.7281 169.106 18.7544C168.871 18.9575 168.602 19.0591 168.083 18.9575C167.914 19.1117 167.683 19.4652 166.933 19.9127C166.941 19.7924 166.954 19.6758 166.972 19.563C166.475 19.8451 166.152 20.3565 165.78 20.4957C165.887 20.3189 165.979 20.003 166.06 19.8451C164.761 20.9958 163.519 22.1015 163.053 22.9326C162.53 23.8615 162.369 24.8205 162.434 26.4C162.484 27.2462 162.853 29.6455 162.919 30.1193C163.022 30.078 163.099 30.0366 163.188 30.0065C163.499 31.7628 164.434 34.2373 164.918 35.0421C165.007 34.8466 165.06 34.7638 165.203 34.6661C165.28 35.1399 165.533 35.6702 165.933 36.0124C165.918 35.6965 166.06 35.5122 166.099 35.3994C166.206 35.7416 166.145 36.7984 166.764 37.3851C166.729 37.0955 166.837 36.8473 166.922 36.4562C167.025 36.7909 167.048 37.2234 167.218 37.5656C167.414 37.968 167.656 38.3666 167.883 38.4719C167.856 37.637 167.987 37.6784 168.017 37.3362C168.033 37.4076 168.356 37.7085 168.51 38.7615C169.14 38.2876 169.386 36.7307 169.382 36.7345C169.382 36.7345 169.563 36.8887 169.698 37.3211C170.248 36.7608 170.417 36.0199 170.578 35.4596C170.636 35.8545 170.651 36.238 170.601 36.4298M171.236 44.6545C171.997 44.647 172.193 44.6583 172.493 44.6057C172.474 44.5192 172.455 44.4402 172.443 44.3687C172.436 44.3161 172.428 44.2559 172.42 44.1957C172.413 44.1957 172.409 44.1957 172.401 44.1995C172.136 44.2597 171.643 44.4063 170.967 44.2898C170.644 44.2258 170.628 44.2183 170.378 44.1468C170.152 44.0792 169.786 44.4515 169.502 44.7448C169.259 44.9968 168.94 45.354 168.798 45.5007C168.771 45.527 168.775 45.5534 168.806 45.5759C169.063 45.8053 172.193 48.6033 172.386 48.7763C172.436 48.8214 172.47 48.8214 172.532 48.765C172.67 48.6259 172.878 48.4115 173.082 48.2122C173.082 48.2122 169.99 45.3691 169.94 45.324C169.894 45.2788 169.886 45.2187 169.909 45.1923C169.932 45.166 170.067 45.0306 170.09 45.0043C170.113 44.978 170.186 44.9742 170.228 45.0231C170.275 45.072 171.244 45.9558 171.244 45.9558L172.574 47.1178L173.412 47.8474C173.531 47.7271 173.516 47.7534 173.547 47.7158C173.67 47.5804 173.639 47.4901 173.216 47.0877C173.097 46.9749 171.051 44.9742 171.051 44.9742C170.84 44.741 170.994 44.6621 171.236 44.6583M166.414 45.3014C166.364 45.3465 163.276 48.1934 163.276 48.1934C163.476 48.3889 163.68 48.6033 163.822 48.7462C163.884 48.8064 163.918 48.8026 163.968 48.7575C164.161 48.5845 167.287 45.7865 167.548 45.5571C167.575 45.5308 167.579 45.5045 167.556 45.4819C167.414 45.3352 167.095 44.978 166.852 44.726C166.568 44.4327 166.202 44.0603 165.976 44.128C165.722 44.1995 165.71 44.207 165.387 44.271C164.711 44.3875 164.214 44.2409 163.949 44.1807C163.926 44.1732 163.903 44.1694 163.88 44.1619C163.872 44.2371 163.865 44.3086 163.853 44.3763C163.842 44.4402 163.83 44.5079 163.815 44.5793C164.138 44.6433 164.314 44.6282 165.118 44.6395C165.364 44.6395 165.518 44.7185 165.303 44.9554C165.303 44.9554 163.253 46.9561 163.138 47.0689C162.707 47.4638 162.68 47.5616 162.807 47.6932C162.842 47.7308 162.826 47.7083 162.946 47.8248L163.784 47.099L165.118 45.9407C165.118 45.9407 166.087 45.0607 166.129 45.0081C166.172 44.9592 166.245 44.9629 166.272 44.993C166.295 45.0193 166.429 45.151 166.452 45.1773C166.475 45.2036 166.468 45.26 166.422 45.3089M166.725 38.1673C166.725 38.1673 166.729 37.9868 166.614 37.7536C166.549 37.6295 166.345 37.4753 166.249 37.3587C166.164 37.261 166.152 37.2046 166.152 37.2046C166.129 37.3174 166.179 37.5919 166.214 37.701C166.252 37.8288 166.337 37.9529 166.483 38.0432C166.641 38.141 166.725 38.1598 166.725 38.1598M166.695 43.9701C166.695 43.9701 166.925 44.1882 166.968 44.2333C167.014 43.9212 167.171 42.8832 167.11 42.7817C166.752 43.4511 166.702 43.9099 166.695 43.9701ZM165.449 43.8986C165.568 43.8573 165.864 43.7256 166.022 43.688C166.06 43.6768 166.122 43.6692 166.141 43.6617C166.229 43.3496 166.379 42.8682 166.483 42.6501C166.391 42.6238 165.603 43.688 165.449 43.8986ZM167.748 45.0156C167.737 44.6019 167.714 44.1544 167.687 43.9551C167.556 44.1393 167.468 44.4139 167.41 44.6696C167.444 44.7034 167.718 44.9817 167.748 45.0156ZM167.956 42.2815C167.956 42.2815 167.879 41.755 167.475 41.582C167.494 41.9619 167.956 42.2815 167.956 42.2815ZM168.271 41.409C168.271 41.409 168.271 41.4053 168.275 41.3978V41.409C168.275 41.409 168.337 41.2661 168.56 41.1044C168.706 40.9991 169.582 40.4877 169.752 40.2583C169.921 40.0364 169.99 39.7242 169.99 39.7242C169.99 39.7242 169.832 39.9724 169.486 40.168C169.194 40.3335 168.502 40.7509 168.379 40.9578C168.317 41.0631 168.294 41.1458 168.287 41.2172C168.279 41.1608 168.264 41.0931 168.229 41.0217C168.017 40.5892 167.383 40.4124 167.002 39.9837C166.752 39.7054 166.745 39.5888 166.745 39.5888C166.733 39.8784 166.795 40.0928 166.91 40.2507C167.018 40.3936 167.337 40.6644 167.756 40.9314C168.183 41.206 168.271 41.4053 168.271 41.4053M167.86 39.8596C167.864 39.1789 167.102 39.1 166.925 38.4268C166.841 39.3745 167.51 39.3895 167.86 39.8596ZM168.214 42.5673C168.214 42.5673 168.31 42.5297 168.529 42.3981C168.725 42.2815 168.89 42.1537 168.986 41.9732C169.09 41.7776 169.071 41.6159 169.056 41.5031C169.056 41.5031 169.013 41.6798 168.756 41.9092C168.644 42.007 168.494 42.1537 168.41 42.2552C168.275 42.4169 168.21 42.5636 168.21 42.5636M168.879 42.966C168.948 43.3721 169.002 44.3198 169.017 44.6282C169.017 44.6282 169.017 44.627 169.017 44.6245C169.129 44.5154 169.248 44.3951 169.367 44.2822C169.344 44.1393 169.209 43.3872 168.879 42.966ZM168.256 45.4405C168.275 45.4217 168.51 45.1472 168.629 45.0231C168.637 45.0193 168.644 45.0118 168.652 45.0043C168.579 44.4816 168.456 43.8272 168.279 43.579C168.244 43.8272 168.252 44.7448 168.26 45.4405M168.267 45.7226C168.267 45.9482 168.275 46.1287 168.279 46.2152C168.298 46.1964 168.525 45.9595 168.525 45.9595C168.525 45.9595 168.333 45.794 168.271 45.7226M168.433 46.5312C168.867 46.9787 169.452 47.5729 169.836 47.9414C170.086 47.7045 170.24 47.5578 170.24 47.5578L168.744 46.2115C168.683 46.2792 168.575 46.3882 168.433 46.5349M170.202 48.2874C170.528 48.5995 170.886 48.9531 171.174 49.2351C171.344 49.0584 171.482 48.9042 171.593 48.7838L170.613 47.8963C170.613 47.8963 170.459 48.0467 170.198 48.2874M170.49 43.7557C170.336 43.5527 169.917 43.0149 169.559 42.6952C169.802 43.2593 169.913 43.6203 169.952 43.7595C169.971 43.7444 169.99 43.7332 170.013 43.7256C170.071 43.6956 170.136 43.6843 170.202 43.6843C170.263 43.6843 170.328 43.7031 170.409 43.7256C170.409 43.7256 170.463 43.7444 170.49 43.7557ZM170.128 38.235C169.936 38.5396 169.775 38.7126 169.529 38.9232C169.609 38.7013 169.629 38.4569 169.629 38.4494C169.509 38.6825 169.233 39.0172 169.052 39.1902C168.606 39.6265 168.521 40.0477 168.521 40.0477C168.521 40.0477 168.64 39.8897 169.183 39.5813C169.748 39.2541 169.955 38.7502 170.132 38.2312M163.138 32.3043C163.134 32.8346 163.519 33.5717 164.038 33.8613C163.73 33.0527 163.488 32.7857 163.138 32.3043ZM174.4 22.5528C174.612 22.5641 174.82 22.5227 175 22.4136C175.17 22.3121 175.204 22.2482 175.258 22.1805C176.55 20.349 178.953 17.4043 180.749 15.084C177.073 11.5339 171.809 11.2932 170.44 11.3872C170.113 11.4135 169.748 11.6617 170.155 12.1807C169.855 12.3123 168.733 12.2145 168.314 11.8309C167.894 12.2145 166.768 12.3161 166.472 12.1807C166.879 11.6617 166.514 11.4097 166.191 11.3872C164.811 11.2894 159.273 11.8159 155.932 15.005C157.774 17.3893 161.623 22.361 161.7 22.4625C161.773 22.5528 161.965 22.6806 162.2 22.6806C162.23 22.6806 162.261 22.6806 162.288 22.6806C162.492 22.6731 162.68 22.5377 162.884 22.3196C163.28 21.8946 163.476 21.6577 163.868 21.2666C164.626 20.5107 165.337 19.9353 165.457 19.8262C165.776 19.5367 165.879 19.3073 165.891 19.0666C165.872 18.7958 165.653 18.6867 165.518 18.5213C165.51 18.5438 165.472 18.589 165.453 18.6191C165.33 18.5213 165.187 18.1038 165.187 18.1038L165.114 18.2994C165.114 18.2994 164.83 17.6337 164.38 17.6902C163.765 17.7729 163.365 17.5134 163.322 17.4984C163.284 17.4871 163.257 17.6902 163.272 17.9233C163.265 17.9233 163.257 17.9196 163.249 17.912C162.826 17.5623 162.699 16.656 163.511 16.0768C164.011 15.7158 164.103 15.7308 164.488 15.5503C164.653 15.4751 164.776 15.3209 164.814 15.2758C165.076 14.9674 165.599 14.7944 165.891 14.7154C166.264 14.6176 167.156 14.4973 168.048 14.5462C168.548 14.5725 169.021 14.6853 169.356 14.8207C169.617 14.926 170.382 15.4751 170.805 16.0204C171.082 16.3777 171.559 17.3855 171.828 18.0286C172.389 19.3712 172.32 19.2245 172.705 20.1158C173.139 21.1312 173.405 21.6991 173.824 22.2707C173.966 22.4663 174.124 22.5452 174.404 22.5603M181.026 14.7342C181.153 14.5725 181.276 14.4108 181.399 14.2529C179.715 12.8012 177.223 11.3308 174.485 10.7516C172.636 10.3605 171.159 10.3267 170.232 10.3379C169.471 10.3492 168.979 10.6388 168.979 11.1014C168.506 11.0186 168.375 10.432 168.314 10.3229C168.267 10.5673 168.037 11.0412 167.656 11.1014C167.656 10.6388 167.164 10.3492 166.402 10.3379C165.472 10.3267 163.999 10.3605 162.146 10.7516C159.358 11.3421 156.951 12.6846 155.274 14.1588C155.397 14.3168 155.52 14.4785 155.647 14.6402C157.155 13.2525 159.166 12.1506 161.311 11.5414C163.088 11.0337 165.272 10.8532 166.279 10.8945C167.171 10.9359 167.298 11.4323 167.195 11.7031C167.594 11.7407 168.19 11.4022 168.321 11.1728C168.413 11.3458 168.96 11.7369 169.448 11.7031C169.344 11.4323 169.471 10.9359 170.363 10.8945C171.367 10.8494 173.555 11.0337 175.331 11.5414C177.423 12.1393 179.522 13.3804 181.03 14.738M182.033 12.9629C182.222 13.6022 182.426 14.3168 182.975 14.7493C183.052 14.8094 183.133 14.8621 183.229 14.911L183.241 14.9185C183.229 13.6925 183.652 13.0306 183.979 12.3123V12.3048C184.444 12.3725 185.056 12.538 186.305 12.3198C185.121 11.5414 185.379 10.6651 184.498 9.7099C184.406 9.6046 184.298 9.50306 184.175 9.39776C183.86 9.17964 183.629 9.10442 183.46 9.10066C183.237 9.09314 183.118 9.2022 183.052 9.27365C182.937 9.39776 181.706 10.6914 180.899 11.579C181.622 11.5639 181.814 12.2145 182.029 12.9629M182.841 8.68322C182.014 7.88595 180.703 7.00218 179.13 6.32901C175.023 4.56523 169.813 4.55771 168.321 4.55771C168.321 4.55771 168.321 4.55771 168.317 4.55771C168.314 4.55771 168.314 4.55771 168.31 4.55771C166.818 4.55771 161.607 4.56523 157.501 6.32901C155.928 7.00218 154.613 7.88595 153.79 8.68322C153.79 8.68322 155.651 10.7215 156.132 11.2744C156.386 11.5677 156.466 11.8084 156.32 12.2446C159.173 10.3718 162.419 9.43537 168.202 9.40152H168.463C174.147 9.45041 177.484 10.3906 180.311 12.2446C180.165 11.8084 180.245 11.5677 180.499 11.2744C180.98 10.7215 182.841 8.68322 182.841 8.68322ZM153.586 9.27742H153.582C153.467 9.14955 153.175 8.90134 152.46 9.39776C151.187 10.4771 151.598 11.4511 150.287 12.3161C150.756 12.3988 151.133 12.4251 151.448 12.4251C151.66 12.4251 151.844 12.4139 152.006 12.3951C152.244 12.3687 152.44 12.3311 152.617 12.3048H152.621C152.952 13.0269 153.367 13.6812 153.359 14.9072C154.89 14.1137 154.263 11.5527 155.69 11.579C154.886 10.6952 153.725 9.41656 153.594 9.27365M154.586 14.4371C155.709 15.9001 156.555 17.0019 156.724 17.2276C157.116 17.7503 158.462 19.3298 158.451 19.1305C158.443 19.0102 157.62 17.8895 157.101 17.1975C156.347 16.1971 155.551 15.1592 154.782 14.1513C154.709 14.2566 154.644 14.3544 154.586 14.4371ZM160.142 24.3692C160.142 25.4372 160.362 26.2232 160.738 27.5244C160.781 26.148 160.488 24.7415 160.142 24.3692ZM159.366 23.1582C159.285 23.6509 159.296 24.2714 159.416 24.7378C159.496 25.0612 159.654 25.3583 159.781 25.6403C159.835 24.6813 159.577 23.6396 159.366 23.1582ZM162.257 32.5074C162.45 31.9207 162.669 28.1487 161.146 26.5241C161.538 27.9833 162.038 29.6869 162.257 32.5074ZM158.058 53.5223C159.131 53.9285 162.111 53.9699 163.503 53.7969C165.283 53.5787 166.649 53.056 167.794 52.2625C167.498 52.0105 167.133 51.6871 166.752 51.3336C166.152 51.8074 165.622 52.1798 165.28 52.3151C163.149 53.1575 160.346 53.3644 160.346 53.3644C160.346 53.3644 164.003 52.5521 165.276 51.8751C165.518 51.7473 165.929 51.4314 166.418 51.0252C165.945 50.5814 165.483 50.1339 165.134 49.7955C164.899 49.9985 164.711 50.1377 164.457 50.3144C163.988 50.6454 163.292 50.8898 162.757 51.1155C160.154 52.1384 158.451 53.1989 158.051 53.5223M166.764 53.5186C166.872 53.857 167.068 54.297 167.195 54.5189C167.195 54.5189 167.883 53.9736 168.09 52.7251C167.96 52.8266 167.744 52.9996 167.564 53.1087C167.248 53.2892 166.968 53.4283 166.764 53.5223M180.095 17.1486C180.253 16.9342 181.034 15.9189 182.079 14.5575C182.006 14.471 181.929 14.3732 181.872 14.2867C181.153 15.2269 180.418 16.1896 179.718 17.1185C179.199 17.8105 178.376 18.9312 178.369 19.0478C178.357 19.2509 179.703 17.6714 180.095 17.1486ZM186.136 10.3755C186.017 10.5297 185.759 10.8644 185.759 10.8644C186.082 11.4398 186.432 12.0378 187.355 12.5116C186.986 11.7783 186.582 11.0675 186.136 10.3755ZM185.279 9.87913C185.306 9.9205 185.421 10.1236 185.452 10.1725C187.578 7.40457 189.531 4.86985 189.531 4.86985C189.531 4.86985 188.709 5.44148 187.52 5.98302C187.64 6.6073 187.24 7.38953 187.082 7.57757C187.017 7.65654 186.313 8.5516 185.279 9.87913ZM151.356 9.08562C151.46 9.21724 151.564 9.35639 151.675 9.4993C153.259 7.50988 155.378 6.08832 157.935 5.1519C157.735 4.85856 157.447 4.2042 158.197 3.48966C159.304 3.62505 159.577 4.27565 159.646 4.61412C161.638 4.08762 163.999 3.76419 166.637 3.67018C166.729 1.89135 168.017 1.46263 168.017 1.46263C168.017 1.46263 168.041 1.12793 168.317 1.01134H168.325C168.602 1.12793 168.625 1.46263 168.625 1.46263C168.625 1.46263 169.913 1.89135 170.005 3.67018C172.639 3.76043 175 4.08386 176.996 4.61412C177.065 4.27565 177.338 3.62505 178.446 3.48966C179.192 4.2042 178.907 4.85856 178.707 5.1519C181.264 6.09208 183.448 7.56629 185.036 9.55571C185.148 9.40528 185.259 9.26613 185.363 9.13075C183.883 7.33688 181.803 5.88524 179.584 4.99019C179.826 4.28693 179.588 3.68898 179.161 3.26778C179.161 2.98196 178.988 2.73376 178.807 2.63974C178.596 2.61341 178.277 2.70743 178.057 2.92931C177.415 3.01957 176.788 3.34675 176.442 4.0124C174.793 3.62505 172.935 3.36556 170.563 3.24521C170.505 2.17717 169.871 1.51904 169.094 1.13921C168.933 0.766897 168.602 0.556296 168.321 0.492364C168.04 0.556296 167.71 0.766897 167.548 1.13921C166.768 1.51528 166.137 2.17717 166.079 3.24521C163.703 3.36556 161.846 3.62505 160.2 4.0124C159.854 3.34675 159.227 3.01957 158.585 2.92931C158.37 2.71119 158.051 2.61341 157.839 2.63974C157.655 2.73752 157.485 2.98572 157.485 3.27154C157.059 3.69274 156.82 4.2907 157.062 4.99395C154.828 5.89652 152.844 7.28423 151.36 9.08938M151.233 10.0822C151.298 9.96563 151.36 9.87537 151.418 9.80768C150.452 8.5704 149.799 7.73928 149.737 7.66406C149.58 7.47603 149.18 6.6938 149.299 6.06952C148.111 5.52797 147.288 4.95634 147.288 4.95634C147.288 4.95634 149.157 7.38201 151.233 10.0822ZM149.245 12.5455C149.426 12.4402 150.037 12.0641 150.414 11.5489C150.602 11.2856 150.749 11.0337 150.868 10.8005C150.852 10.7817 150.464 10.2928 150.464 10.2928C150.022 11.0224 149.618 11.7745 149.245 12.5455ZM145.911 27.7162C146.292 28.0321 148.211 29.6192 151.237 31.304C151.306 29.5364 151.356 23.1695 155.247 16.3739C154.805 15.7985 154.605 15.5428 154.186 14.9937C153.867 15.3209 153.459 15.5503 152.856 15.7233C152.879 14.377 152.579 13.6361 152.198 12.8501C151.648 12.8651 150.706 12.8877 149.23 12.5756C147.269 16.6823 146.273 21.4246 145.911 27.7087M163.653 56.5723L163.676 56.5159C163.784 56.2263 164.288 55.0454 164.545 54.4475C164.507 54.3459 164.476 54.2406 164.445 54.1391C164.099 54.1955 163.749 54.2444 163.399 54.282C163.165 54.3046 159.704 54.8273 157.193 53.6728C157.501 53.4622 158.074 53.0034 158.847 52.5145C158.858 52.4618 158.866 52.4129 158.873 52.364C158.27 52.695 157.689 52.7514 157.247 52.7326C157.208 52.3452 157.316 51.8451 157.516 51.2697C156.943 51.3975 156.505 51.2584 156.505 51.2584C156.505 51.2584 156.882 50.0662 157.705 48.6372C158.47 47.3021 159.539 45.9558 160.454 44.8388C160.55 44.3988 160.9 44.0303 160.938 43.9889C160.961 43.9626 161.069 43.8498 161.092 43.8272C160.988 43.7407 160.888 43.658 160.792 43.5865C160.688 43.6918 160.612 43.7445 160.546 43.7745C160.258 43.9024 160.081 43.9513 159.927 43.9551C159.608 43.9663 159.423 43.9062 159.312 43.752L159.289 43.7144C159.054 43.6504 158.893 43.5188 158.835 43.3308C158.823 43.2932 158.816 43.2518 158.816 43.2142C158.639 43.2668 158.516 43.2819 158.358 43.1503C158.135 42.9622 158.443 42.0145 159.5 41.033C160.239 40.3448 160.938 39.9461 161.584 39.6716C162.084 39.4572 162.376 39.8747 162.134 40.1605C161.842 40.5027 161.619 41.1082 161.915 41.7437C162.219 41.646 162.338 41.5971 162.384 41.5783C162.503 41.5331 162.642 41.4955 162.799 41.2925C162.815 41.2737 162.83 41.236 162.849 41.1872L162.407 41.236C162.63 40.6907 162.284 39.3632 162.515 38.502C162.457 38.5434 162.3 38.6449 162.211 38.6712C162.05 37.8852 162.073 36.6442 162.138 36.0387C162.127 35.8808 161.9 35.6062 161.592 35.2979C161.346 35.9146 160.915 36.6668 160.189 37.543C159.627 38.2162 158.616 38.8254 158.097 40.9954C158.097 41.0029 158.093 41.0066 158.089 41.0104C158.004 41.3526 157.881 41.6723 157.72 41.9957C157.382 42.6802 157.405 43.0826 157.405 43.0826V43.0713C157.439 44.4402 157.378 47.2645 157.035 48.8478C156.736 50.2355 156.232 50.9387 156.232 50.9387L156.151 50.871C156.02 51.3449 155.793 52.1722 155.24 52.8191C155.24 52.8191 154.767 51.8939 153.905 44.8426C152.96 37.0804 152.479 28.9798 152.479 28.9798H152.483C152.39 27.547 152.721 25.8735 153.144 24.6437C153.917 22.6882 155.251 20.7965 156.07 20.0143C156.582 19.5254 157.151 19.4163 157.701 19.5179C157.547 19.3148 157.374 19.0929 157.374 19.0929C156.828 18.3859 156.201 17.6074 155.663 16.9117C151.787 23.5907 151.883 31.5559 151.883 31.6236V32.4736L151.21 32.1201C148.161 30.4277 146.838 29.4048 145.846 28.6C145.804 29.4086 145.719 32.1539 145.719 32.1539C145.715 32.2028 145.719 32.7782 145.719 33.8199C145.719 37.0052 146.303 44.8238 148.96 50.1941C149.33 50.8635 150.322 52.6574 152.117 54.3046C153.479 55.5569 155.067 56.4482 156.824 57.001C156.924 57.0311 157.128 57.0988 157.232 57.1326C159.262 57.7644 161.473 57.6328 163.642 56.5723M163.492 58.7874C163.895 58.4564 164.526 58.2157 165.314 58.5354C165.36 57.599 165.514 56.1962 165.722 54.9627C165.407 55.2635 165.141 55.4065 165.118 55.4065C165.072 55.4027 165.018 55.3538 164.957 55.2748C164.349 56.7227 163.499 58.7648 163.492 58.7836M171.209 59.4718C171.255 58.4865 170.844 55.8352 170.594 54.3234C170.567 54.2858 170.536 54.2444 170.509 54.1993C170.459 54.1353 170.409 54.0676 170.363 53.9924C170.275 54.2933 170.163 54.6167 170.017 54.9326C169.844 55.3049 169.571 55.6923 169.517 55.6885C169.471 55.6848 168.744 55.1808 168.279 54.1955C167.814 55.1658 167.098 55.6622 167.052 55.666C166.998 55.6735 166.725 55.2824 166.552 54.91C166.476 54.7408 166.406 54.5716 166.349 54.4061C166.11 55.9931 165.753 58.5391 165.799 59.4793C164.291 58.5091 163.38 59.4793 163.692 60.1563C163.722 60.2127 163.753 60.2691 163.792 60.318C163.972 60.5511 164.211 60.679 164.537 60.7053C165.022 60.7354 165.664 60.7843 166.391 61.119C167.056 61.4236 167.775 61.9276 168.506 62.8188C169.233 61.9276 169.952 61.4236 170.617 61.119C171.344 60.7881 171.986 60.7392 172.47 60.7053C172.801 60.679 173.032 60.5323 173.216 60.318C173.255 60.2728 173.285 60.2164 173.316 60.1563C173.628 59.4793 172.712 58.5091 171.209 59.4793M173.512 58.7911C173.505 58.7723 172.593 56.482 172.04 55.0943C171.905 55.2748 171.774 55.414 171.743 55.414C171.72 55.414 171.509 55.2974 171.24 55.0605C171.447 56.1511 171.64 57.5162 171.69 58.5391C172.478 58.2157 173.109 58.4602 173.512 58.7911ZM190.885 32.2291C190.87 31.1611 190.808 29.4123 190.766 28.6038C189.735 29.4199 188.762 30.2397 185.556 32.0448L184.721 32.4886L184.729 31.9019C184.729 31.8342 184.96 23.8803 181.007 17.0207C180.757 17.3479 179.926 18.3821 179.069 19.4427C179.572 19.3862 180.084 19.5179 180.549 19.9616C181.368 20.7439 182.702 22.6355 183.475 24.5911C183.894 25.8208 184.225 27.4944 184.137 28.9272C184.137 28.9272 183.66 37.0278 182.71 44.7899C181.849 51.8413 181.376 52.7664 181.376 52.7664C180.826 52.1196 180.599 51.2885 180.468 50.8184L180.388 50.8861C180.388 50.8861 179.884 50.1791 179.584 48.7913C179.242 47.2081 179.18 44.3838 179.215 43.0186V43.0262C179.215 43.0262 179.234 42.6275 178.896 41.9431C178.734 41.6196 178.615 41.3 178.526 40.9578C178.526 40.954 178.523 40.9465 178.519 40.9427C178 38.7728 176.988 38.1635 176.431 37.4904C175.758 36.6818 175.266 35.8356 174.966 35.1399C174.947 35.155 174.935 35.1625 174.912 35.185C174.543 35.531 174.266 35.8808 174.254 36.0763C174.381 37.3437 174.5 38.2463 174.308 38.8856C174.227 38.8442 174.104 38.7201 174.035 38.6712C174.124 39.5099 173.72 40.4764 173.974 41.2473L173.47 41.1796C173.489 41.236 173.508 41.2812 173.524 41.3C173.597 41.394 173.662 41.4504 173.781 41.5143C173.804 41.5294 173.904 41.5745 173.947 41.5933C173.993 41.6121 174.116 41.6572 174.466 41.7701C174.758 41.1383 174.535 40.5328 174.243 40.1906C174.001 39.9048 174.293 39.4873 174.793 39.7017C175.439 39.98 176.139 40.3786 176.877 41.0631C177.938 42.0446 178.246 42.9923 178.023 43.1803C177.85 43.327 177.715 43.2932 177.507 43.2217C177.507 43.2593 177.5 43.2969 177.488 43.3308C177.431 43.5188 177.273 43.6504 177.034 43.7144L177.011 43.752C176.9 43.9062 176.715 43.9626 176.396 43.9551C176.123 43.9513 175.819 43.7971 175.777 43.7745C175.719 43.7482 175.654 43.7068 175.569 43.6241C175.508 43.6692 175.446 43.7219 175.381 43.7745C176.215 44.8764 177.823 46.7004 178.969 48.6973C179.788 50.1226 180.168 51.3186 180.168 51.3186C180.168 51.3186 179.73 51.4577 179.157 51.3298C179.361 51.9015 179.469 52.4016 179.426 52.789C178.984 52.804 178.403 52.7514 177.8 52.4167C177.819 52.5069 177.834 52.601 177.85 52.695C178.365 53.056 178.938 53.4734 179.192 53.6427C176.681 54.7972 173.039 54.267 172.97 54.2594C172.797 54.2369 172.639 54.2143 172.505 54.1955C172.482 54.2594 172.447 54.3384 172.413 54.4212C172.659 54.989 173.228 56.3166 173.358 56.5836C174.954 57.2981 176.438 57.7644 178.726 57.3921C178.726 57.3921 179.115 57.3545 180.091 57.0349C181.091 56.7039 182.968 55.6321 184.406 54.3083C186.198 52.6611 187.286 50.9274 187.643 50.2505C190.424 44.9404 190.881 37.0616 190.881 33.8763C190.881 32.8346 190.881 32.2705 190.881 32.2216" fill="#221F20"/>
</g>
<defs>
<clipPath id="clip0_762_1468">
<rect width="192" height="64" fill="white"/>
</clipPath>
</defs>
</svg>
